<?xml version="1.0" encoding="UTF-8"?>
<svg width="64px" height="50px" viewBox="0 0 64 50" version="1.1" xmlns="http://www.w3.org/2000/svg" xmlns:xlink="http://www.w3.org/1999/xlink">
    <!-- Generator: Sketch 59.1 (86144) - https://sketch.com -->
    <title>noun_world_2207285</title>
    <desc>Created with Sketch.</desc>
    <g id="Page-1" stroke="none" stroke-width="1" fill="none" fill-rule="evenodd">
        <g id="noun_world_2207285" fill="#483493" fill-rule="nonzero">
            <path d="M63.558,17.805 C63.108,16.126 61.334,15 58.287,14.458 L57.892,16.673 C59.886,17.028 61.191,17.669 61.383,18.387 C61.639,19.343 60.172,21.251 56.459,23.583 C56.397,22.525 56.274,21.46 56.069,20.392 C53.862,8.859 43.75,0.487 32.025,0.487 C30.479,0.487 28.921,0.635 27.39,0.928 C20.961,2.158 15.396,5.82 11.72,11.236 C8.043,16.653 6.697,23.177 7.927,29.607 C8.376,31.957 9.159,34.174 10.213,36.217 C5.648,36.155 2.939,35.347 2.613,34.134 C2.415,33.396 3.266,32.154 4.889,30.812 L3.454,29.078 C0.996,31.111 -0.019,33.008 0.439,34.716 C1.145,37.353 5.191,38.461 10.908,38.461 C11.105,38.461 11.31,38.455 11.512,38.453 C15.935,45.179 23.535,49.512 31.971,49.512 C33.516,49.512 35.075,49.364 36.605,49.071 C47.919,46.905 55.927,37.234 56.472,26.204 C61.835,23.102 64.221,20.277 63.558,17.805 Z M21.104,5.585 C21.975,6.915 23.511,8.652 25.632,8.757 C27.166,8.839 28.419,8.052 29.428,7.424 C29.782,7.204 30.3,6.882 30.55,6.815 C30.576,6.85 30.612,6.906 30.654,6.991 L30.956,7.592 C31.867,9.395 31.984,9.627 31.571,11.522 C31.224,13.108 30.304,17.322 34.154,18.598 C34.55,18.729 34.703,18.875 34.717,18.878 C34.706,19.119 33.859,20.364 30.142,21.632 C25.949,23.062 22.638,24.192 22.066,26.522 C21.772,27.717 22.255,28.955 23.541,30.305 C23.753,30.528 24.088,30.93 23.945,31.119 C23.129,32.199 18.747,32.609 17.799,32.127 C17.579,31.786 17.808,30.246 17.959,29.228 C18.264,27.166 18.644,24.601 17.755,22.47 C17.074,20.838 15.859,19.637 14.789,18.577 C13.12,16.926 12.19,15.885 12.576,14.134 C12.888,13.579 13.22,13.032 13.581,12.5 C15.554,9.596 18.127,7.252 21.104,5.585 Z M11.005,17.59 C11.591,18.572 12.422,19.401 13.207,20.177 C14.218,21.177 15.172,22.121 15.678,23.337 C16.327,24.891 16.012,27.021 15.735,28.899 C15.405,31.126 15.093,33.229 16.703,34.076 C17.266,34.372 18.292,34.534 19.468,34.534 C21.775,34.534 24.656,33.913 25.741,32.477 C26.137,31.953 26.874,30.542 25.172,28.755 C24.487,28.036 24.161,27.434 24.252,27.059 C24.53,25.925 28.046,24.726 30.87,23.763 C34.81,22.419 36.976,20.681 36.969,18.87 C36.966,18.355 36.757,17.091 34.863,16.463 C33.674,16.069 33.076,15.185 33.771,12.003 C34.328,9.449 34.02,8.667 32.965,6.579 L32.669,5.99 C32.308,5.264 31.81,4.807 31.189,4.631 C30.139,4.335 29.176,4.935 28.242,5.515 C27.421,6.025 26.566,6.543 25.744,6.512 C24.705,6.461 23.775,5.507 23.134,4.584 C24.621,3.942 26.187,3.452 27.817,3.14 C29.208,2.873 30.625,2.739 32.028,2.739 C38.661,2.739 44.725,5.691 48.84,10.449 C47.624,10.918 46.157,11.736 45.661,13.061 C45.409,13.73 45.307,14.79 46.247,16.04 C48.278,18.742 48.052,19.53 47.095,21.412 C46.507,22.572 46.215,23.994 46.251,25.524 L48.501,25.471 C48.474,24.311 48.681,23.26 49.101,22.431 C50.431,19.816 50.594,18.077 48.046,14.689 C47.65,14.164 47.738,13.93 47.767,13.852 C47.988,13.264 49.21,12.671 50.297,12.333 C52.023,14.822 53.265,17.69 53.863,20.817 C54.124,22.178 54.247,23.534 54.255,24.873 C48.968,27.751 41.684,30.508 33.711,32.644 C25.237,34.915 18.074,35.971 12.761,36.185 C11.526,34.062 10.623,31.708 10.141,29.187 C9.384,25.247 9.699,21.271 11.005,17.59 Z M36.1783409,46.9066534 C35.8572271,46.982404 35.5098738,47.041995 35.1878738,47.088995 C34.9319456,47.1561114 34.6547737,47.1788473 33.9461207,47.2088473 C33.2374676,47.2388473 33.2145918,47.263 32.8013504,47.263 C32.5333504,47.273 32.24,47.263 31.972,47.263 C24.797,47.263 18.291,43.807 14.194,38.35 C20.14,37.98 27.31,36.685 34.29,34.815 C41.843,32.792 48.807,30.212 54.118,27.484 C53.95,28.968 53.633,30.419 53.18,31.817 C52.014,31.912 50.986,31.411 50.117,30.316 L48.354,31.714 C49.45,33.095 50.816,33.888 52.319,34.049 C51.448,35.998 50.302,37.813 48.921,39.435 C47.709406,40.8084332 48.7372548,39.6528399 47.374,41.077 C44.379,43.951 40.4087199,45.9087083 36.1783409,46.9066534 Z" id="Shape"></path>
        </g>
    </g>
</svg>