<svg xmlns="http://www.w3.org/2000/svg" xmlns:xlink="http://www.w3.org/1999/xlink" viewBox="0 0 56 56" version="1.1" style="opacity: 1; box-shadow: none; border-top-left-radius: 0px; border-top-right-radius: 0px; border-bottom-right-radius: 0px; border-bottom-left-radius: 0px;" preserveAspectRatio="xMidYMid meet" fill="#483493" fill-opacity="1" width="56px" height="56px">
    <!-- Generator: Sketch 59.1 (86144) - https://sketch.com -->
    <title>Group 31</title>
    <desc>Created with Sketch.</desc>
    <g id="Page-1" stroke="none" stroke-width="1" fill="" fill-rule="evenodd" style="undefined" fill-opacity="">
        <g id="Group-31" fill="" style="undefined" fill-opacity="">
            <path d="M28,0 C43.463973,0 56,12.536027 56,28 C56,43.463973 43.463973,56 28,56 C12.536027,56 0,43.463973 0,28 C0,12.536027 12.536027,0 28,0 Z M28,2 C13.6405965,2 2,13.6405965 2,28 C2,42.3594035 13.6405965,54 28,54 C42.3594035,54 54,42.3594035 54,28 C54,13.6405965 42.3594035,2 28,2 Z" id="Combined-Shape"/>
            <g id="Group-29" transform="translate(12.000000, 10.000000)">
                <g id="noun_ruble_366458-2" transform="translate(17.000000, 9.000000)" fill-rule="nonzero">
                    <g id="noun_ruble_366458">
                        <path d="M4.08759294,19.0997764 C4.08759294,19.6002216 3.66126371,20 3.1360449,20 C2.61082608,20 2.18449686,19.6004438 2.18449686,19.0997764 L2.18449686,16.1906608 L0.95154804,16.1906608 C0.426329226,16.1906608 0,15.7873269 0,15.2904372 C0,14.7935476 0.426329226,14.3902136 0.95154804,14.3902136 L2.18473175,14.3902136 L2.18473175,12.3559883 L0.951782933,12.3559883 C0.426564118,12.3559883 0.000234892135,11.9526543 0.000234892135,11.4557647 C0.000234892135,10.958875 0.426564118,10.5555411 0.951782933,10.5555411 L2.18473175,10.5555411 L2.18473175,1.14797112 C2.18473175,0.6799704 2.56149874,0.294636476 3.04490675,0.251525299 C7.47849581,-0.364253422 10.1616687,0.211969683 11.7638679,1.31374915 C13.4954927,2.50197319 13.967391,4.23375362 13.997927,5.81064493 C14.0474893,8.19064857 13.2063405,9.83953999 11.6877629,10.9053194 C10.241532,11.9242098 8.22075495,12.3562105 5.81170121,12.3562105 L4.08759294,12.3562105 L4.08759294,14.3904359 L8.2282715,14.3904359 C8.75349032,14.3904359 9.17981954,14.7937698 9.17981954,15.2906595 C9.17981954,15.7875491 8.75349032,16.1908831 8.2282715,16.1908831 L4.08759294,16.1908831 L4.08759294,19.0997764 Z M4.08759294,1.93641677 L4.08759294,10.5559855 L5.81170121,10.5559855 C7.82871998,10.5559855 9.46897176,10.231985 10.5574619,9.46509497 C11.5736053,8.74864943 12.1368766,7.58198097 12.1025824,5.83953386 C12.0797978,4.73419883 11.7753776,3.54241923 10.648835,2.76841804 C9.49551457,1.97597239 7.48601235,1.55486063 4.08759294,1.93641677 L4.08759294,1.93641677 Z" id="Shape"/>
                    </g>
                </g>
                <text id="0" font-family="PTSans-Regular, PT Sans" font-size="28" font-weight="normal">
                    <tspan x="0" y="29">0</tspan>
                </text>
            </g>
        </g>
    </g>
</svg>