<?xml version="1.0" encoding="UTF-8"?>
<svg width="136px" height="186px" viewBox="0 0 136 186" version="1.1" xmlns="http://www.w3.org/2000/svg" xmlns:xlink="http://www.w3.org/1999/xlink">
    <!-- Generator: Sketch 59.1 (86144) - https://sketch.com -->
    <title>Group 77 Copy</title>
    <desc>Created with Sketch.</desc>
    <g id="Page-1" stroke="none" stroke-width="1" fill="none" fill-rule="evenodd">
        <g id="Group-77-Copy">
            <circle id="Oval-Copy-2" fill="#473494" cx="68" cy="20" r="20"></circle>
            <path d="M136,117.975072 L136,117.975072 L117.673016,117.975072 L108.98,117.999 L130.541029,118 L134.208209,118.024928 L135.960305,118.024928 L135.982358,118.021235 C135.994119,118.020004 136,118.021235 136,118.024928 C136,155.566524 105.555363,186 68,186 L68,186 L68,118.024928 L86.3269842,118.024928 L95.019,118 L73.458971,118 L69.7917905,117.975072 L68.0396948,117.975072 L68.0176421,117.978765 C68.0058807,117.979996 68,117.978765 68,117.975072 C68,80.4334764 98.444637,50 136,50 L136,50 Z" id="Combined-Shape" fill="#F27268"></path>
            <path d="M-3.48497481e-13,117.975072 L-6.4431747e-13,50 C37.555363,50 68,80.4334764 68,117.975072 C68,117.978765 67.9941193,117.979996 67.9823579,117.978765 L67.9603052,117.975072 L66.2082095,117.975072 L62.541029,118 L40.98,118 L49.6730158,118.024928 L68,118.024928 L68,186 C30.444637,186 1.97530881e-12,155.566524 1.97530881e-12,118.024928 C1.97530881e-12,118.021235 0.00588070543,118.020004 0.0176421163,118.021235 L0.0396947616,118.024928 L1.79179054,118.024928 L5.45897105,118 L27.019,117.999 L18.3269842,117.975072 L-3.48497481e-13,117.975072 L-6.4431747e-13,50 Z" id="Combined-Shape" fill="#FCCD63"></path>
        </g>
    </g>
</svg>