<?xml version="1.0" encoding="UTF-8"?>
<svg width="121px" height="167px" viewBox="0 0 121 167" version="1.1" xmlns="http://www.w3.org/2000/svg" xmlns:xlink="http://www.w3.org/1999/xlink">
    <!-- Generator: Sketch 59.1 (86144) - https://sketch.com -->
    <title>Group 71</title>
    <desc>Created with Sketch.</desc>
    <g id="Page-1" stroke="none" stroke-width="1" fill="none" fill-rule="evenodd">
        <g id="Group-71">
            <g id="Group-67-Copy-2" transform="translate(42.500000, 83.500000) rotate(90.000000) translate(-42.500000, -83.500000) translate(-41.000000, 41.000000)">
                <path d="M160.086844,0.75 L164.562962,0.780610013 L166.701549,0.780610013 L166.728466,0.776075006 C166.742822,0.774563337 166.75,0.776075006 166.75,0.780610013 C166.75,46.8794812 129.589634,84.25 83.75,84.25 L83.75,84.25 L83.75,0.780610013 L106.119701,0.780610013 L117.171251,0.75 L160.086844,0.75 Z M49.8287489,0.75 L60.8802987,0.780610013 L83.25,0.780610013 L83.25,84.25 C37.4103658,84.25 0.25,46.8794812 0.25,0.780610013 C0.25,0.776075006 0.25717792,0.774563337 0.27153376,0.776075006 L0.298450959,0.780610013 L2.43703846,0.780610013 L6.91315584,0.75 L49.8287489,0.75 Z" id="Combined-Shape" fill="#AE9DF4"></path>
                <path d="M82.75,84.25 C128.589634,84.25 165.75,46.8794812 165.75,0.780610013 C165.75,0.773807503 165.73385,0.773807503 165.701549,0.780610013 L165.701549,0.780610013 L163.562962,0.780610013 L159.086844,0.75 L116.171251,0.75 L105.119701,0.780610013 L82.75,0.780610013 Z" id="Combined-Shape-Copy" fill="#7864CC"></path>
            </g>
            <circle id="Oval-Copy-46" fill="#FCCD63" transform="translate(84.500000, 82.500000) rotate(90.000000) translate(-84.500000, -82.500000) " cx="84.5" cy="82.5" r="36.5"></circle>
        </g>
    </g>
</svg>