<?xml version="1.0" encoding="UTF-8"?>
<svg width="45px" height="35px" viewBox="0 0 45 35" version="1.1" xmlns="http://www.w3.org/2000/svg" xmlns:xlink="http://www.w3.org/1999/xlink">
    <!-- Generator: Sketch 59.1 (86144) - https://sketch.com -->
    <title>noun_Thought Bubble_56884</title>
    <desc>Created with Sketch.</desc>
    <g id="Page-1" stroke="none" stroke-width="1" fill="none" fill-rule="evenodd">
        <g id="noun_Thought-Bubble_56884" fill="#483493" fill-rule="nonzero">
            <g id="Group">
                <path d="M8.67857143,27.7846154 L8.625,27.7846154 C6.85714286,27.7846154 5.46428571,28.8615385 5.46428571,30.2076923 C5.46428571,31.6076923 6.80357143,32.7384615 8.625,32.7384615 L8.67857143,32.7384615 C10.4464286,32.7384615 11.8392857,31.6615385 11.8392857,30.3153846 C11.8392857,28.9692308 10.4464286,27.8384615 8.67857143,27.7846154 Z M8.625,31.5538462 L8.625,31.5538462 C7.5,31.5538462 6.58928571,30.9615385 6.58928571,30.2615385 C6.58928571,29.6153846 7.5,29.0230769 8.51785714,29.0230769 L8.57142857,29.0230769 C9.64285714,29.0230769 10.5535714,29.6153846 10.5535714,30.3153846 C10.6071429,31.0153846 9.69642857,31.5538462 8.625,31.5538462 Z" id="Shape"></path>
                <path d="M2.94642857,30.8 L2.94642857,30.8 C1.55357143,30.8 0.535714286,31.6076923 0.482142857,32.6846154 C0.482142857,33.7615385 1.5,34.6230769 2.83928571,34.6230769 L2.89285714,34.6230769 C4.23214286,34.6230769 5.25,33.8153846 5.30357143,32.7384615 C5.35714286,31.6615385 4.28571429,30.8 2.94642857,30.8 Z M2.94642857,33.3846154 L2.94642857,33.3846154 C2.25,33.3846154 1.71428571,33.0076923 1.71428571,32.6846154 C1.71428571,32.3615385 2.19642857,32.0384615 2.89285714,32.0384615 L2.94642857,32.0384615 C3.64285714,32.0384615 4.125,32.4153846 4.125,32.7384615 C4.125,33.0615385 3.64285714,33.3846154 2.94642857,33.3846154 Z" id="Shape"></path>
                <path d="M44.5714286,15.7769231 C44.5714286,12.5461538 41.9464286,9.8 38.1964286,8.99230769 C38.1964286,8.99230769 38.1964286,8.99230769 38.1964286,8.93846154 C38.1964286,5.06153846 34.3928571,1.88461538 29.7321429,1.88461538 C28.2857143,1.88461538 26.8392857,2.20769231 25.5535714,2.8 C23.9464286,1.07692308 21.4821429,0.0538461538 18.8571429,0.0538461538 C15.1071429,0.0538461538 11.8392857,2.1 10.7678571,5.00769231 C10.5,5.00769231 10.2857143,4.95384615 10.0714286,4.95384615 C10.0714286,4.95384615 10.0714286,4.95384615 10.0714286,4.95384615 C7.82142857,4.95384615 5.73214286,5.65384615 4.125,6.94615385 C2.46428571,8.29230769 1.55357143,10.0692308 1.55357143,11.9538462 C1.55357143,12.9769231 1.875,14.0538462 2.41071429,15.0230769 C1.125,16.2615385 0.428571429,17.8769231 0.428571429,19.5461538 C0.428571429,23.4230769 4.23214286,26.6 8.89285714,26.6 C9.58928571,26.6 10.3392857,26.4923077 11.0892857,26.3307692 C12.4821429,28.7538462 15.4285714,30.3692308 18.75,30.3692308 C20.9464286,30.3692308 23.0357143,29.6692308 24.6428571,28.3769231 C26.1428571,29.3461538 27.9642857,29.8846154 29.8928571,29.8846154 C34.5535714,29.8846154 38.3571429,26.7076923 38.3571429,22.8846154 C38.3571429,22.7769231 38.3571429,22.6153846 38.3571429,22.5076923 C42,21.7 44.5714286,18.9538462 44.5714286,15.7769231 Z M37.2857143,21 C37.0714286,21.0538462 36.8571429,21.1615385 36.6964286,21.3769231 C36.5892857,21.5923077 36.5357143,21.8076923 36.5892857,22.0230769 C36.6428571,22.2923077 36.6964286,22.6153846 36.6964286,22.8846154 C36.6964286,25.8461538 33.6428571,28.2153846 29.8928571,28.2153846 C28.0714286,28.2153846 26.4107143,27.6769231 25.0714286,26.6538462 C24.75,26.3846154 24.2678571,26.4384615 24,26.7076923 C22.6607143,28 20.7857143,28.7 18.75,28.7 C15.8571429,28.7 13.2321429,27.2461538 12.3214286,25.0384615 C12.1607143,24.7153846 11.8928571,24.5 11.5714286,24.5 C11.5178571,24.5 11.4107143,24.5 11.3571429,24.5538462 C10.5,24.8230769 9.75,24.9307692 8.94642857,24.9307692 C5.19642857,24.9307692 2.14285714,22.5076923 2.14285714,19.6 C2.14285714,18.2 2.83928571,16.8538462 4.07142857,15.8846154 C4.44642857,15.6153846 4.5,15.0769231 4.23214286,14.7 C3.58928571,13.8384615 3.26785714,12.9230769 3.26785714,12.0076923 C3.26785714,10.6076923 3.96428571,9.31538462 5.19642857,8.29230769 C6.48214286,7.26923077 8.25,6.67692308 10.0714286,6.67692308 C10.4464286,6.67692308 10.8214286,6.73076923 11.25,6.78461538 C11.6785714,6.83846154 12.0535714,6.56923077 12.1607143,6.13846154 C12.75,3.60769231 15.5892857,1.77692308 18.8571429,1.77692308 C21.2678571,1.77692308 23.4642857,2.74615385 24.6964286,4.41538462 C24.9642857,4.73846154 25.3928571,4.84615385 25.7678571,4.63076923 C26.9464286,3.93076923 28.3392857,3.60769231 29.7321429,3.60769231 C33.4821429,3.60769231 36.5357143,6.03076923 36.5357143,8.93846154 C36.5357143,9.04615385 36.5357143,9.15384615 36.4821429,9.31538462 C36.4821429,9.36923077 36.4821429,9.47692308 36.4285714,9.53076923 C36.375,9.74615385 36.4285714,9.96153846 36.5892857,10.1769231 C36.75,10.3384615 36.9107143,10.5 37.125,10.5 C40.4464286,10.9307692 42.8571429,13.1384615 42.8571429,15.7230769 C42.9107143,18.3615385 40.5535714,20.5692308 37.2857143,21 Z" id="Shape"></path>
            </g>
        </g>
    </g>
</svg>