<?xml version="1.0" encoding="UTF-8"?>
<svg width="54px" height="86px" viewBox="0 0 54 86" version="1.1" xmlns="http://www.w3.org/2000/svg" xmlns:xlink="http://www.w3.org/1999/xlink">
    <!-- Generator: Sketch 59.1 (86144) - https://sketch.com -->
    <title>noun_attention_2274345</title>
    <desc>Created with Sketch.</desc>
    <g id="Page-1" stroke="none" stroke-width="1" fill="none" fill-rule="evenodd">
        <g id="noun_attention_2274345" fill="#483493" fill-rule="nonzero">
            <path d="M33.2787,19.2715 C31.2981,19.2715 29.5154,20.0242 28.129,21.2522 C27.0198,18.4 24.2468,16.3797 20.9985,16.3797 C19.1763,16.3797 17.5125,17.0135 16.2053,18.0831 L16.2053,8.4966 C16.2053,4.0995 12.7589,0.53432 8.5203,0.53432 C4.2816,0.53432 0.8352,4.0995 0.8352,8.4966 L0.8352,50.6058 C0.8352,50.7247 0.8352,50.8435 0.8352,51.002 C0.8352,51.0416 0.8352,51.0812 0.8352,51.1208 L0.8352,58.6078 C0.8352,73.4232 12.6797,85.4657 27.2575,85.4657 C41.558,85.4657 53.1647,73.4232 53.1647,58.6077 L53.1647,42.802 C53.1647,42.7623 53.1647,42.7227 53.1647,42.7227 L53.1647,29.8879 C53.1647,25.6493 49.7183,22.2425 45.5193,22.2425 C43.5386,22.2425 41.756,22.9952 40.4092,24.2232 C39.3,21.3314 36.527,19.2715 33.2787,19.2715 Z M25.5937,24.0648 L25.5937,41.7324 L16.443,41.7324 L16.443,24.0648 C16.443,21.5295 18.5029,19.5092 20.9985,19.5092 C23.5338,19.4696 25.5937,21.5295 25.5937,24.0648 Z M8.5203,3.6242 C11.0952,3.6242 13.2343,5.8029 13.2343,8.4966 L13.2343,41.6928 L9.986,41.6928 C7.2923,41.6532 5.3116,42.1681 3.8063,43.2773 L3.8063,8.4966 C3.8063,5.8029 5.9454,3.6242 8.5203,3.6242 Z M27.2575,82.3759 C14.3435,82.3759 3.8459,71.7198 3.8459,58.6078 L3.8459,50.0116 C4.0043,48.1498 4.5193,46.8425 5.3116,46.0503 C6.1831,45.1788 7.728,44.743 9.986,44.7826 L33.7145,44.7826 C36.2497,44.7826 38.27,46.8425 38.27,49.3382 C38.27,51.8735 36.2101,53.8937 33.7145,53.8937 L16.3241,53.8937 C16.1657,53.8937 16.0072,53.9334 15.8488,53.973 C15.5715,53.973 15.4526,53.973 15.413,53.973 C14.5811,53.973 13.8681,54.6464 13.8681,55.5179 C13.8681,56.3498 14.5415,57.0628 15.413,57.0628 C15.928,57.0628 27.7725,57.2609 31.4961,70.0957 C31.7338,70.9276 32.6053,71.4029 33.3976,71.1256 C34.071,70.9276 34.5068,70.3334 34.5068,69.6599 C34.5068,69.5015 34.4671,69.3826 34.4275,69.2242 C32.5657,62.886 28.9212,59.1623 25.3164,57.0232 L33.7145,57.0232 C37.9135,57.0232 41.3599,53.5768 41.3599,49.3778 C41.3599,49.2986 41.3599,49.2193 41.3599,49.1401 C42.5483,49.9324 43.9744,50.3681 45.5193,50.3681 C47.2623,50.3681 48.8865,49.7739 50.1937,48.7836 L50.1937,58.6078 C50.1937,71.7198 39.8942,82.3759 27.2575,82.3759 Z M50.0749,29.8879 L50.0749,42.7227 C50.0749,45.258 48.015,47.2783 45.5193,47.2783 C42.984,47.2783 40.9638,45.2184 40.9638,42.7227 L40.9638,29.8879 C40.9638,27.3527 43.0237,25.3324 45.5193,25.3324 C48.0546,25.3324 50.0749,27.3527 50.0749,29.8879 Z M37.8343,26.9169 L37.8343,42.9208 C36.6459,42.1681 35.2198,41.6928 33.7145,41.6928 L28.7232,41.6928 L28.7232,26.9169 C28.7232,24.3817 30.7831,22.3614 33.2787,22.3614 C35.814,22.3614 37.8343,24.4213 37.8343,26.9169 Z" id="Shape"></path>
        </g>
    </g>
</svg>