<svg xmlns="http://www.w3.org/2000/svg" xmlns:xlink="http://www.w3.org/1999/xlink" viewBox="0 0 30 22" version="1.1" preserveAspectRatio="xMidYMid meet" style="box-shadow: none; border-top-left-radius: 0px; border-top-right-radius: 0px; border-bottom-right-radius: 0px; border-bottom-left-radius: 0px; opacity: 1;" fill="#5947aa" fill-opacity="1" width="30px" height="22px">
    <!-- Generator: Sketch 59.1 (86144) - https://sketch.com -->
    <title>noun_menu_3247925</title>
    <desc>Created with Sketch.</desc>
    <g id="Page-1" stroke="none" stroke-width="1" fill="" fill-rule="evenodd" style="undefined" fill-opacity="">
        <g id="noun_menu_3247925" fill="" fill-rule="nonzero" style="undefined" fill-opacity="">
            <path d="M29,22 L1,22 C0.44771525,22 0,21.5522847 0,21 C0,20.4477153 0.44771525,20 1,20 L29,20 C29.5522847,20 30,20.4477153 30,21 C30,21.5522847 29.5522847,22 29,22 Z M21,11 C21,10.4477153 20.5522847,10 20,10 L1,10 C0.44771525,10 0,10.4477153 0,11 C0,11.5522847 0.44771525,12 1,12 L20,12 C20.5522847,12 21,11.5522847 21,11 Z M30,1 C30,0.44771525 29.5522847,0 29,0 L1,0 C0.44771525,0 0,0.44771525 0,1 C0,1.55228475 0.44771525,2 1,2 L29,2 C29.5520895,2 30,1.55258948 30,1.0005 L30,1 Z" id="Shape"/>
        </g>
    </g>
</svg>