<?xml version="1.0" encoding="UTF-8"?>
<svg width="275px" height="301px" viewBox="0 0 275 301" version="1.1" xmlns="http://www.w3.org/2000/svg" xmlns:xlink="http://www.w3.org/1999/xlink">
    <!-- Generator: Sketch 59.1 (86144) - https://sketch.com -->
    <title>Group 23</title>
    <desc>Created with Sketch.</desc>
    <g id="Page-1" stroke="none" stroke-width="1" fill="none" fill-rule="evenodd">
        <g id="Longread" transform="translate(-749.000000, -118.000000)">
            <g id="Group-23" transform="translate(749.000000, 118.000000)">
                <circle id="Oval" fill="#F27268" cx="29.5" cy="133.5" r="24.5"></circle>
                <g id="Group-2" transform="translate(94.000000, 0.000000)">
                    <ellipse id="Oval-Copy-2" fill="#473494" cx="47" cy="24.3489583" rx="24.4791667" ry="24.3489583"></ellipse>
                    <path d="M94,44.8020833 C94,71.1592977 72.52687,92.5260417 46.0384219,92.5260417 C46.0345131,92.5260417 46.0345131,92.5167554 46.0384219,92.498183 L46.0384219,92.498183 L46.0384219,91.268522 L46.0208333,88.6948107 L46.0208333,64.0188832 L46.0384219,57.6643808 L46.0384219,44.8020833 Z" id="Combined-Shape-Copy-2" fill="#FFA3A3" transform="translate(70.010417, 68.664062) scale(-1, 1) rotate(-90.000000) translate(-70.010417, -68.664062) "></path>
                    <path d="M47.9791667,44.8020833 C47.9791667,71.1592977 26.5060367,92.5260417 0.017588538,92.5260417 C0.0136798101,92.5260417 0.0136798101,92.5167554 0.017588538,92.498183 L0.017588538,92.498183 L0.017588538,91.268522 L-2.27373675e-13,88.6948107 L-2.27373675e-13,64.0188832 L0.017588538,57.6643808 L0.0175885379,44.8020833 Z" id="Combined-Shape-Copy-2" fill="#FCCD63" transform="translate(23.989583, 68.664062) rotate(-90.000000) translate(-23.989583, -68.664062) "></path>
                    <path d="M46.0208333,187 C60.5198318,186.652925 72.6577655,181.102426 82.4346345,170.348503 C88.6170507,163.548246 91.3558345,156.939644 92.8022943,150.456442 C93.3629415,147.943556 93.7621767,144.216756 94,139.276042 C81.5389441,140.878412 71.309455,145.657329 63.311533,153.612792 C55.3136109,161.568254 49.5500444,172.697324 46.0208333,187 Z" id="Path" fill="#F27268"></path>
                    <path d="M0,187 C14.4989984,186.652925 26.6369322,181.102426 36.4138012,170.348503 C42.5962174,163.548246 45.3350012,156.939644 46.781461,150.456442 C47.3421082,147.943556 47.7413434,144.216756 47.9791667,139.276042 C35.5181107,140.878412 25.2886217,145.657329 17.2906997,153.612792 C9.2927776,161.568254 3.52921105,172.697324 0,187 Z" id="Path-Copy" fill="#473494" transform="translate(23.989583, 163.138021) scale(-1, 1) translate(-23.989583, -163.138021) "></path>
                </g>
                <path d="M71,159 L71,159.242101 C71,198.320609 39.2238702,230 0.0260276758,230 C0.0202435054,230 0.0202435054,229.986232 0.0260276758,229.958695 L0.0260276758,229.958695 L0.0260276758,228.135539 L0,224.319628 L0,187.733878 L0.0260276758,178.312379 L0.0260276758,159.242101 L0,159.242101 L71,159 L71,159 Z" id="Combined-Shape-Copy-4" fill="#FFA3A3" transform="translate(35.500000, 194.500000) scale(-1, 1) rotate(-90.000000) translate(-35.500000, -194.500000) "></path>
                <path d="M188,91 C188,117.509668 166.517546,139 140.017596,139 C140.013686,139 140.013686,138.99066 140.017596,138.97198 L140.017596,138.97198 L140.017596,137.735207 L140,135.146609 L140,110.327952 L140.017596,103.936695 L140.017596,91 Z" id="Combined-Shape-Copy-2" fill="#FCCD63" transform="translate(164.000000, 115.000000) scale(1, -1) rotate(-90.000000) translate(-164.000000, -115.000000) "></path>
                <g id="Group-Copy-8" transform="translate(35.500000, 265.500000) scale(-1, -1) translate(-35.500000, -265.500000) translate(0.000000, 230.000000)" fill="#FCCD63">
                    <path d="M71,-4.54969395e-13 C71,39.2122172 39.2238702,71 0.0260276758,71 C0.0202435054,71 0.0202435054,70.9861847 0.0260276758,70.958554 L0.0260276758,70.958554 L0.0260276758,69.1291599 L-2.27373675e-13,65.300192 L-2.27373675e-13,28.589263 L0.0260276758,19.1355276 L0.0260276758,-1.4177548e-13 Z" id="Combined-Shape-Copy-2" transform="translate(35.500000, 35.500000) scale(-1, 1) rotate(-90.000000) translate(-35.500000, -35.500000) "></path>
                </g>
                <path d="M142,91 C142,117.509668 120.517546,139 94.0175962,139 C94.0136858,139 94.0136858,138.99066 94.0175962,138.97198 L94.0175962,138.97198 L94.0175962,137.735207 L94,135.146609 L94,110.327952 L94.0175962,103.936695 L94.0175962,91 Z" id="Combined-Shape-Copy-2" fill="#FFA3A3" transform="translate(118.000000, 115.000000) scale(-1, -1) rotate(-90.000000) translate(-118.000000, -115.000000) "></path>
                <path d="M255,144 C269.505294,143.650917 281.648498,138.068313 291.429613,127.252189 C297.614713,120.412598 300.354686,113.76577 301.801774,107.245069 C302.362665,104.717649 302.762073,100.969292 303,96 C290.533533,97.6116387 280.299602,102.418197 272.298208,110.419675 C264.296813,118.421154 258.530743,129.614595 255,144 Z" id="Path-Copy-2" fill="#F27268"></path>
                <path d="M208,144 C222.505294,143.650917 234.648498,138.068313 244.429613,127.252189 C250.614713,120.412598 253.354686,113.76577 254.801774,107.245069 C255.362665,104.717649 255.762073,100.969292 256,96 C243.533533,97.6116387 233.299602,102.418197 225.298208,110.419675 C217.296813,118.421154 211.530743,129.614595 208,144 Z" id="Path-Copy-3" fill="#7864CC" transform="translate(232.000000, 120.000000) scale(-1, 1) translate(-232.000000, -120.000000) "></path>
                <g id="Group-5" transform="translate(208.000000, 2.000000)">
                    <ellipse id="Oval" fill="#FCCD63" cx="47.5" cy="47" rx="47.5" ry="47"></ellipse>
                    <ellipse id="Oval-Copy-3" fill="#FFFFFF" cx="47.5" cy="47" rx="24.4485294" ry="24.1911765"></ellipse>
                </g>
            </g>
        </g>
    </g>
</svg>