<?xml version="1.0" encoding="UTF-8"?>
<svg width="44px" height="61px" viewBox="0 0 44 61" version="1.1" xmlns="http://www.w3.org/2000/svg" xmlns:xlink="http://www.w3.org/1999/xlink">
    <!-- Generator: Sketch 59.1 (86144) - https://sketch.com -->
    <title>noun_education grant_3147036</title>
    <desc>Created with Sketch.</desc>
    <g id="Page-1" stroke="none" stroke-width="1" fill="none" fill-rule="evenodd">
        <g id="noun_education-grant_3147036" transform="translate(-0.285714, 0.000000)" fill="#483493" fill-rule="nonzero">
            <g id="Group" transform="translate(0.285714, 0.000000)">
                <path d="M20.4470588,40.6882979 C21.7411765,40.6882979 22.7764706,41.7265957 22.7764706,43.0244681 C22.7764706,43.543617 23.2294118,43.9978723 23.7470588,43.9978723 C24.2647059,43.9978723 24.7176471,43.543617 24.7176471,43.0244681 C24.7176471,41.012766 23.2941176,39.3255319 21.4176471,38.8712766 L21.4176471,37.5085106 C21.4176471,36.9893617 20.9647059,36.5351064 20.4470588,36.5351064 C19.9294118,36.5351064 19.4764706,36.9893617 19.4764706,37.5085106 L19.4764706,38.8712766 C17.6,39.3255319 16.1764706,41.012766 16.1764706,43.0244681 C16.1764706,45.3606383 18.1176471,47.3074468 20.4470588,47.3074468 C21.7411765,47.3074468 22.7764706,48.3457447 22.7764706,49.643617 C22.7764706,50.9414894 21.7411765,51.9797872 20.4470588,51.9797872 C19.1529412,51.9797872 18.1176471,50.9414894 18.1176471,49.643617 C18.1176471,49.1244681 17.6647059,48.6702128 17.1470588,48.6702128 C16.6294118,48.6702128 16.1764706,49.0595745 16.1764706,49.643617 C16.1764706,51.6553191 17.6,53.3425532 19.4764706,53.7968085 L19.4764706,55.1595745 C19.4764706,55.6787234 19.9294118,56.1329787 20.4470588,56.1329787 C20.9647059,56.1329787 21.4176471,55.6787234 21.4176471,55.1595745 L21.4176471,53.7968085 C23.2941176,53.3425532 24.7176471,51.6553191 24.7176471,49.643617 C24.7176471,47.3074468 22.7764706,45.3606383 20.4470588,45.3606383 C19.1529412,45.3606383 18.1176471,44.3223404 18.1176471,43.0244681 C18.1176471,41.7265957 19.1529412,40.6882979 20.4470588,40.6882979 Z" id="Path"></path>
                <path d="M20.4470588,31.9925532 C12.5529412,31.9925532 6.14705882,38.4170213 6.14705882,46.3340426 C6.14705882,54.2510638 12.5529412,60.6755319 20.4470588,60.6755319 C28.3411765,60.6755319 34.7470588,54.2510638 34.7470588,46.3340426 C34.7470588,38.4170213 28.3411765,31.9925532 20.4470588,31.9925532 Z M20.4470588,58.7287234 C13.6529412,58.7287234 8.08823529,53.1478723 8.08823529,46.3340426 C8.08823529,39.5202128 13.5882353,33.9393617 20.4470588,33.9393617 C27.3058824,33.9393617 32.8058824,39.5202128 32.8058824,46.3340426 C32.8058824,53.1478723 27.2411765,58.7287234 20.4470588,58.7287234 Z" id="Shape"></path>
                <path d="M43.4176471,30.2404255 L40.3764706,24.9840426 C40.3764706,24.9191489 40.4411765,24.7893617 40.4411765,24.7244681 L40.4411765,11.0319149 C40.4411765,10.9670213 40.4411765,10.837234 40.3764706,10.7723404 C40.3764706,10.7723404 40.3764706,10.7074468 40.3764706,10.7074468 C40.3764706,10.6425532 40.3117647,10.5776596 40.3117647,10.512766 C40.3117647,10.512766 40.3117647,10.512766 40.3117647,10.4478723 C40.2470588,10.3829787 40.2470588,10.3180851 40.1823529,10.2531915 C40.1823529,10.2531915 40.1823529,10.2531915 40.1176471,10.1882979 C40.0529412,10.1234043 39.9882353,10.1234043 39.9235294,10.0585106 C39.9235294,10.0585106 39.9235294,10.0585106 39.9235294,10.0585106 L20.9,0.584042553 C20.6411765,0.454255319 20.3176471,0.454255319 20.0588235,0.584042553 L0.970588235,10.1234043 C0.647058824,10.3180851 0.452941176,10.6425532 0.452941176,10.9670213 C0.452941176,11.2914894 0.647058824,11.6808511 0.970588235,11.8106383 L7.50588235,15.1202128 L7.50588235,24.2053191 C7.50588235,24.5946809 7.7,24.9191489 8.08823529,25.1138298 C12.0352941,26.9308511 16.1117647,27.8393617 20.2529412,27.8393617 C24.3941176,27.8393617 28.5352941,26.9308511 32.7411765,25.1138298 C33.0647059,24.9840426 33.3235294,24.5946809 33.3235294,24.2053191 L33.3235294,15.1202128 L38.5,12.5244681 L38.5,24.6595745 C38.5,24.7244681 38.5,24.8542553 38.5647059,24.9191489 L35.5235294,30.1755319 C35.3294118,30.5 35.3294118,30.8244681 35.5235294,31.1489362 C35.7176471,31.4734043 36.0411765,31.6680851 36.3647059,31.6680851 L42.6411765,31.6680851 C42.9647059,31.6680851 43.2882353,31.4734043 43.4823529,31.1489362 C43.6117647,30.8893617 43.6117647,30.5 43.4176471,30.2404255 Z M31.3823529,23.6212766 C23.8764706,26.7361702 16.5647059,26.7361702 9.51176471,23.6212766 L9.51176471,16.1585106 L19.9941176,21.4148936 C20.1235294,21.4797872 20.2529412,21.5446809 20.4470588,21.5446809 C20.6411765,21.5446809 20.7705882,21.4797872 20.9,21.4148936 L31.3823529,16.1585106 L31.3823529,23.6212766 Z M20.4470588,19.4680851 L3.62352941,11.0319149 L20.4470588,2.59574468 L37.2705882,11.0319149 L20.4470588,19.4680851 Z M37.9823529,29.7212766 L39.4058824,27.1904255 L40.8294118,29.7212766 L37.9823529,29.7212766 Z" id="Shape"></path>
            </g>
        </g>
    </g>
</svg>