<?xml version="1.0" encoding="UTF-8"?>
<svg width="68px" height="59px" viewBox="0 0 68 59" version="1.1" xmlns="http://www.w3.org/2000/svg" xmlns:xlink="http://www.w3.org/1999/xlink">
    <!-- Generator: Sketch 59.1 (86144) - https://sketch.com -->
    <title>ccheart_black</title>
    <desc>Created with Sketch.</desc>
    <g id="Page-1" stroke="none" stroke-width="1" fill="none" fill-rule="evenodd">
        <g id="Philteh_new-Copy-2" transform="translate(-591.000000, -1388.000000)" fill="#000000">
            <g id="ccheart_black" transform="translate(591.000000, 1388.000000)">
                <path d="M34.0834112,10.9200739 C38.4084872,6.29619596 43.4602968,4.19342221 49.3095625,5.00804277 C55.3468349,5.84887966 60.4870956,10.1098034 62.314578,15.8527478 C63.7207936,20.2717961 63.137048,25.2210727 61.2539714,29.7342852 C58.3252112,36.7537827 49.6705498,46.731536 34.0000126,53.7072284 C18.3294902,46.731536 9.67482881,36.7537827 6.74605391,29.7342852 C4.86297733,25.2210727 4.27924636,20.2717961 5.68544725,15.8527478 C7.51291501,10.1098034 12.6531904,5.84887966 18.6904628,5.00804277 C24.5399048,4.19339321 29.5918171,6.29632646 33.916996,10.9204654 C33.9249275,10.9289335 34.0000126,11.009453 34.0000273,11.0094385 C34.0000861,11.0094965 34.0762581,10.9277155 34.0834406,10.9200739 L34.0834112,10.9200739 Z M34,4.3624509 C24.553124,-2.95725846 9.74678538,-1.04732271 2.93830431,9.95363636 C0.677701759,13.6062772 -0.171353461,17.8529762 0.0281684935,22.0691959 C0.374276808,29.3824962 3.57201858,35.775165 8.26903918,41.291776 C14.5937265,48.7200773 23.7373665,54.5574034 33.80005,58.9134484 C33.8140477,58.9195095 33.9302299,58.9693611 34,59 C34.0611882,58.9745812 34.1683226,58.9269046 34.2012384,58.9125639 C44.2120733,54.5566059 53.4066366,48.7187578 59.7309567,41.2917615 C64.4283005,35.7754115 67.6257191,29.3824672 67.9718274,22.0691814 C68.1713641,17.8529617 67.3223235,13.6062482 65.0616916,9.95362186 C58.2532105,-1.04733721 43.4468866,-2.95727296 34,4.3624364 L34,4.3624509 Z" id="Shape"></path>
                <path d="M33.6957346,30.6496107 L29.3884523,28.5903396 C27.891309,30.695879 26.8020175,32.1208734 23.6556085,31.2893216 C21.1858289,30.6365858 20.4547997,28.0257419 20.3609166,25.835654 C20.2326842,22.844193 21.3170182,19.3892264 25.0214596,19.5739873 C27.3885885,19.6920204 28.3971776,21.0385531 28.9361745,22.2490052 L33.6391429,19.9236738 C31.322589,15.6610487 25.8938137,14.2113665 21.2920543,15.3992733 C16.3953912,16.6633149 13.9152553,21.0078637 14.0022098,25.6932596 C14.091106,30.4826562 16.4747697,34.6198846 21.5951665,35.6996618 C24.0917929,36.2261354 26.8102702,36.1037607 29.1222049,34.9857316 C30.9114127,34.1204824 32.8992432,32.4504691 33.6957346,30.6495965 L33.6957346,30.6496107 Z M54,30.6496107 L49.6927177,28.5903396 C48.1955744,30.695879 47.1062829,32.1208734 43.9598739,31.2893216 C41.4900943,30.6365858 40.7590504,28.0257419 40.665182,25.835654 C40.5369348,22.844193 41.6212836,19.3892264 45.325725,19.5739873 C47.6928539,19.6920204 48.7014283,21.0385531 49.2404399,22.2490052 L53.9434083,19.9236738 C51.6268544,15.6610487 46.1980643,14.2113665 41.5963197,15.3992733 C36.6996566,16.6633149 34.2195207,21.0078637 34.3064752,25.6932596 C34.3953567,30.4826562 36.7790351,34.6198846 41.8994318,35.6996618 C44.3960583,36.2261354 47.1145356,36.1037607 49.4264703,34.9857316 C51.2156781,34.1204824 53.2035085,32.4504691 54,30.6495965 L54,30.6496107 Z" id="Shape"></path>
            </g>
        </g>
    </g>
</svg>