<?xml version="1.0" encoding="UTF-8"?>
<svg width="58px" height="52px" viewBox="0 0 58 52" version="1.1" xmlns="http://www.w3.org/2000/svg" xmlns:xlink="http://www.w3.org/1999/xlink">
    <!-- Generator: Sketch 59.1 (86144) - https://sketch.com -->
    <title>noun_scales_1735519</title>
    <desc>Created with Sketch.</desc>
    <g id="Page-1" stroke="none" stroke-width="1" fill="none" fill-rule="evenodd">
        <g id="noun_scales_1735519" fill="#483493" fill-rule="nonzero">
            <path d="M47.75,0.11 L33.63,3 C32.6114845,0.878312294 30.2799216,-0.278185593 27.9744329,0.194735177 C25.6689441,0.667655948 23.9809741,2.64867342 23.88,5 L10.15,7.72 L0.05,34.05 C0.22783745,39.9004198 5.0218779,44.5509483 10.875,44.5509483 C16.7281221,44.5509483 21.5221625,39.9004198 21.7,34.05 L12.24,9.34 L24.17,6.92 C24.7760206,8.62180597 26.2294075,9.88166101 28,10.24 L28,50 L15.28,50 C14.7277153,50 14.28,50.4477153 14.28,51 C14.28,51.5522847 14.7277153,52 15.28,52 L42.74,52 C43.2922847,52 43.74,51.5522847 43.74,51 C43.74,50.4477153 43.2922847,50 42.74,50 L30,50 L30,10.24 C32.3908033,9.7629749 34.1215301,7.67776181 34.15,5.24 C34.15,5.14 34.15,5.05 34.15,4.95 L45.55,2.64 L36.29,26.71 C36.4678375,32.5604198 41.2618779,37.2109483 47.115,37.2109483 C52.9681221,37.2109483 57.7621625,32.5604198 57.94,26.71 L47.75,0.11 Z M32.16,5.19 C32.1379825,6.92301656 30.7201031,8.3126954 28.986994,8.29989743 C27.2538848,8.28709946 25.8566828,6.87663292 25.860254,5.1434802 C25.863839,3.41032747 27.2668528,2.00564194 29,1.99998329 C29.8441411,1.99725205 30.6540642,2.33343039 31.2481387,2.93314477 C31.8422131,3.53285915 32.1707238,4.34592253 32.16,5.19 L32.16,5.19 Z M10.88,42.88 C6.39319347,42.8738517 2.62262914,39.50743 2.11,35.05 L19.65,35.05 C19.1373709,39.50743 15.3668065,42.8738517 10.88,42.88 L10.88,42.88 Z M2.5,33.05 L10.89,11.36 L19.28,33.05 L2.5,33.05 Z M47.12,4 L55.51,25.69 L38.73,25.69 L47.12,4 Z M47.12,35.51 C42.6331935,35.5038517 38.8626291,32.13743 38.35,27.68 L55.89,27.68 C55.3914662,32.1493222 51.617034,35.5321087 47.12,35.54 L47.12,35.51 Z" id="Shape"></path>
        </g>
    </g>
</svg>