<?xml version="1.0" encoding="UTF-8"?>
<svg width="87px" height="105px" viewBox="0 0 87 105" version="1.1" xmlns="http://www.w3.org/2000/svg" xmlns:xlink="http://www.w3.org/1999/xlink">
    <!-- Generator: Sketch 59.1 (86144) - https://sketch.com -->
    <title>No_money Copy 5</title>
    <desc>Created with Sketch.</desc>
    <g id="No_money-Copy-5" stroke="none" stroke-width="1" fill="none" fill-rule="evenodd">
        <rect fill="#FFE2A0" opacity="0.0120465472" x="0" y="0" width="87" height="105"></rect>
        <g id="Group-50" transform="translate(7.000000, 15.000000)">
            <path d="M4.33431069e-13,74.8798147 L6.08019893,65.2557347 C30.1473148,26.8160059 43.2176204,6.42337873 45.2911157,4.07785331 C48.4013586,0.559565172 52.4228079,-0.895273499 57.98473,0.559565172 C63.5466521,2.01440384 67.6108877,8.90155128 66.3447071,13.9141147 C65.5005867,17.2558237 63.6734999,19.9695237 60.8634468,22.0552147 C61.8039419,36.7086408 59.8443697,47.0209447 54.98473,52.9921263 C47.6952705,61.9488988 42.232842,65.4141147 21.116421,65.4141147 C7.038807,65.4141147 3.81649333,65.3613214 11.44948,65.2557347" id="Path-68" stroke="#483493" stroke-width="2.8" stroke-linecap="round" stroke-linejoin="round"></path>
            <path d="M11.44948,65.2557347 C31.6053034,60.3164471 42.3700503,49.9626148 43.7437205,34.1942379 C43.9872929,31.3982676 44.1876763,28.7397021 44.3448706,26.2185416" id="Path-69" stroke="#483493" stroke-width="2.8" stroke-linecap="round" stroke-linejoin="round"></path>
            <line x1="26.95264" y1="65.2557347" x2="30.4790753" y2="74.8798147" id="Path-70" stroke="#483493" stroke-width="2.8" stroke-linecap="round" stroke-linejoin="round"></line>
            <line x1="37.98473" y1="64.4141147" x2="41.48473" y2="74.9141147" id="Path-70-Copy" stroke="#483493" stroke-width="2.8" stroke-linecap="round" stroke-linejoin="round"></line>
            <polygon id="Path-71" fill="#483493" points="66.0066093 8.41411473 72.9542832 11.4141147 66.5771539 15.3035853"></polygon>
            <circle id="Oval" fill="#483493" cx="54.98473" cy="11.4141147" r="3"></circle>
        </g>
    </g>
</svg>