<?xml version="1.0" encoding="UTF-8"?>
<svg width="89px" height="129px" viewBox="0 0 89 129" version="1.1" xmlns="http://www.w3.org/2000/svg" xmlns:xlink="http://www.w3.org/1999/xlink">
    <!-- Generator: Sketch 59.1 (86144) - https://sketch.com -->
    <title>Group 22</title>
    <desc>Created with Sketch.</desc>
    <g id="Page-1" stroke="none" stroke-width="1" fill="none" fill-rule="evenodd">
        <g id="Longread" transform="translate(-331.000000, -439.000000)">
            <g id="Group-22" transform="translate(331.000000, 439.000000)">
                <path d="M43.5,129 C57.0987133,128.68728 68.4829672,123.686197 77.6527619,113.996752 C83.4512938,107.869619 86.0200185,101.915169 87.3766634,96.073708 C87.9024983,93.8095601 88.2769439,90.4516575 88.5,86 C76.8126874,87.4437596 67.2183773,91.749635 59.7170696,98.917626 C52.2157619,106.085617 46.810072,116.113075 43.5,129 Z" id="Path-Copy-4" fill="#FFA3A3"></path>
                <path d="M0.5,129 C14.0987133,128.68728 25.4829672,123.686197 34.6527619,113.996752 C40.4512938,107.869619 43.0200185,101.915169 44.3766634,96.073708 C44.9024983,93.8095601 45.2769439,90.4516575 45.5,86 C33.8126874,87.4437596 24.2183773,91.749635 16.7170696,98.917626 C9.21576188,106.085617 3.81007202,116.113075 0.5,129 Z" id="Path-Copy-5" fill="#473494" transform="translate(23.000000, 107.500000) scale(-1, 1) translate(-23.000000, -107.500000) "></path>
                <g id="Group-5-Copy" transform="translate(0.500000, 0.000000)">
                    <circle id="Oval" fill="#FCCD63" cx="43.5" cy="43.5" r="43.5"></circle>
                    <circle id="Oval-Copy-3" fill="#FFFFFF" cx="43.5" cy="43.5" r="22.3897059"></circle>
                </g>
            </g>
        </g>
    </g>
</svg>