<svg xmlns="http://www.w3.org/2000/svg" xmlns:xlink="http://www.w3.org/1999/xlink" viewBox="0.6000000238418579 0.8097713589668274 78.80000305175781 67.73165130615234" version="1.1" preserveAspectRatio="xMidYMid meet" fill="#fcd47e" fill-opacity="1" style="box-shadow: none; border-top-left-radius: 0px; border-top-right-radius: 0px; border-bottom-right-radius: 0px; border-bottom-left-radius: 0px; opacity: 1;" width="80px" height="69px">
    <!-- Generator: Sketch 59.1 (86144) - https://sketch.com -->
    <title>noun_Book_798328</title>
    <desc>Created with Sketch.</desc>
    <g id="Page-1" stroke="none" stroke-width="1" fill="" fill-rule="evenodd" style="undefined" fill-opacity="">
        <g id="noun_Book_798328" fill="" fill-rule="nonzero" style="undefined" fill-opacity="">
            <g id="Group">
                <path d="M0.8,62.9 L1.1,62.8 C13.2,58.9 26.5,60.8 37,68 L37.8,68.5 C37.9,68.6 38,68.5 38,68.4 L38,8.7 C38,8.7 38,8.6 37.9,8.6 L36.9,7.9 C26.4,0.8 13.3,-1.1 1.2,2.8 L0.7,3 C0.6,3 0.6,3.1 0.6,3.1 L0.6,62.8 C0.7,62.9 0.7,63 0.8,62.9 Z" id="Path"/>
                <path d="M42.6,8.2 L42,8.6 L42,68.3 C42,68.4 42.1,68.5 42.2,68.4 L42.8,68 C53.5,60.6 66.9,58.7 79.2,62.8 C79.3,62.8 79.4,62.8 79.4,62.7 L79.4,3.1 C79.4,3 79.4,3 79.3,3 C66.9,-1.2 53.3,0.7 42.6,8.2 Z" id="Path"/>
            </g>
        </g>
    </g>
</svg>