<?xml version="1.0" encoding="UTF-8"?>
<svg width="64px" height="44px" viewBox="0 0 64 44" version="1.1" xmlns="http://www.w3.org/2000/svg" xmlns:xlink="http://www.w3.org/1999/xlink">
    <!-- Generator: Sketch 59.1 (86144) - https://sketch.com -->
    <title>noun_people_922382</title>
    <desc>Created with Sketch.</desc>
    <g id="Page-1" stroke="none" stroke-width="1" fill="none" fill-rule="evenodd">
        <g id="noun_people_922382" fill="#483493" fill-rule="nonzero">
            <g id="Group">
                <path d="M47.2727273,0.260126557 C42.4700145,0.260126557 38.5454545,4.15251082 38.5454545,8.91586426 C38.5454545,13.6791889 42.4700145,17.571602 47.2727273,17.571602 C52.0754473,17.571602 56,13.6791889 56,8.91586426 C56,4.15251082 52.0754473,0.260126557 47.2727273,0.260126557 Z M47.3,2.5 C50.798075,2.5 53.6,5.30194862 53.6,8.8 C53.6,12.298075 50.798075,15.1 47.3,15.1 C43.801925,15.1 41,12.298075 41,8.8 C41,5.30194862 43.801925,2.5 47.3,2.5 Z M29.0454545,6.03061836 C25.0460727,6.03061836 21.7727273,9.27710426 21.7727273,13.2437331 C21.7727273,17.2103692 25.0460727,20.4568262 29.0454545,20.4568262 C33.0448291,20.4568262 36.3181818,17.2103692 36.3181818,13.2437331 C36.3181818,9.27710426 33.0448291,6.03061836 29.0454545,6.03061836 Z M29.0454545,8.24373311 C31.8266045,8.24373311 34.0454545,10.4625664 34.0454545,13.2437331 C34.0454545,16.0248998 31.8266045,18.2437331 29.0454545,18.2437331 C26.2642962,18.2437331 24.0454545,16.0248998 24.0454545,13.2437331 C24.0454545,10.4625664 26.2642962,8.24373311 29.0454545,8.24373311 Z M11.3636364,12.5224289 C8.16756364,12.5224289 5.54545455,15.1453639 5.54545455,18.3424434 C5.54545455,21.5394938 8.16756364,24.1624289 11.3636364,24.1624289 C14.5597091,24.1624289 17.1818182,21.5394938 17.1818182,18.3424434 C17.1818182,15.1453639 14.5597091,12.5224289 11.3636364,12.5224289 Z M11.5,14.7 C13.509556,14.7 15.1,16.290488 15.1,18.300018 C15.1,20.309548 13.509556,21.9 11.5,21.9 C9.490444,21.9 7.9,20.309548 7.9,18.300018 C7.9,16.290488 9.490444,14.7 11.5,14.7 Z M47.2727273,20.4568262 C42.5737455,20.4568262 38.3459782,21.5107344 35.25,23.409659 C33.3473527,22.9094295 31.2584291,22.6207607 29.0454545,22.6207607 C23.8990618,22.6207607 19.3588873,24.0452787 16.5227273,26.5653967 C15.21568,26.3337115 13.8222036,26.227318 12.3636364,26.227318 C9.16262545,26.227318 6.23869818,26.7733508 3.97727273,27.9178557 C1.71584727,29.0624328 0,30.9882623 0,33.4178557 L0,42.0984066 C0,42.8537639 0.692967273,43.5410295 1.45454545,43.5410295 C21.8181818,43.5410295 42.1818182,43.5410295 62.5454545,43.5410295 C63.3070327,43.5410295 64,42.8537639 64,42.0984066 L64,30.5551869 C64,27.4154623 61.8400291,24.7951541 58.7954545,23.0940852 C55.75088,21.3930885 51.7160582,20.4568262 47.2727273,20.4568262 L47.2727273,20.4568262 Z M46.8570047,22.9989279 C51.1178907,22.9989279 54.9321658,23.927308 57.5585431,25.3657722 C60.1849205,26.8043113 61.5113636,28.5921554 61.5113636,30.4979592 L61.5113636,40.9989279 L43.7236713,40.9989279 L43.7236713,31.9977655 C43.7236713,29.0015275 41.6083917,26.4788534 38.6621329,24.8268168 C38.455167,24.7107318 38.2274846,24.6075451 38.0113636,24.4987341 C40.4501652,23.5649548 43.5125714,22.9989279 46.8570047,22.9989279 L46.8570047,22.9989279 Z M28.8669644,25.0808951 C32.5321022,25.0808951 35.8101879,25.9555088 38.0646215,27.2948159 C40.319055,28.6341991 41.4386364,30.2915545 41.4386364,31.9370258 L41.4386364,41.0808951 L24.4761231,41.0808951 L24.4761231,33.4367664 C24.4761231,30.8708213 22.7314042,28.8369121 20.4319271,27.6281 C20.2103921,27.5116982 19.972329,27.3996385 19.7386364,27.2948159 C21.9930699,25.9869709 25.2280865,25.0808951 28.8669644,25.0808951 L28.8669644,25.0808951 Z M12.3636364,28.8841738 C15.3702594,28.8841738 18.0603364,29.4284933 19.8395979,30.3135468 C21.6188594,31.1986753 22.3636364,32.1920079 22.3636364,33.3598316 L22.3636364,40.8841738 L2.36363636,40.8841738 L2.36363636,33.3598316 C2.36363636,32.1920079 3.10841329,31.1986753 4.88767483,30.3135468 C6.66693636,29.4284933 9.35701329,28.8841738 12.3636364,28.8841738 L12.3636364,28.8841738 Z" id="Shape"></path>
            </g>
        </g>
    </g>
</svg>