<?xml version="1.0" encoding="UTF-8"?>
<svg width="136px" height="130px" viewBox="0 0 136 130" version="1.1" xmlns="http://www.w3.org/2000/svg" xmlns:xlink="http://www.w3.org/1999/xlink">
    <!-- Generator: Sketch 59.1 (86144) - https://sketch.com -->
    <title>Group 68</title>
    <desc>Created with Sketch.</desc>
    <g id="Page-1" stroke="none" stroke-width="1" fill="none" fill-rule="evenodd">
        <g id="Group-68">
            <g id="Group-62-Copy" transform="translate(33.000000, 0.000000)" fill="#473494">
                <circle id="Oval-Copy-2" cx="35" cy="35" r="35"></circle>
            </g>
            <g id="Group-61" transform="translate(0.000000, 62.000000)">
                <path d="M68,68 C88.5491667,67.5054658 105.752039,59.5967771 119.608618,44.2739338 C128.370844,34.5845134 132.252472,25.1681748 134.302514,15.930515 C135.097109,12.3500021 135.662937,7.03983041 136,0 C118.339172,2.28315479 103.841103,9.09244599 92.505794,20.4278736 C81.1704846,31.7633012 73.0018866,47.6206767 68,68 Z" id="Path" fill="#FCCD63"></path>
                <path d="M0,68 C20.5491667,67.5054658 37.7520393,59.5967771 51.6086179,44.2739338 C60.3708439,34.5845134 64.2524724,25.1681748 66.3025136,15.930515 C67.0971086,12.3500021 67.6629374,7.03983041 68,0 C50.3391721,2.28315479 35.8411035,9.09244599 24.505794,20.4278736 C13.1704846,31.7633012 5.00188661,47.6206767 0,68 Z" id="Path-Copy" fill="#FFA3A3" transform="translate(34.000000, 34.000000) scale(-1, 1) translate(-34.000000, -34.000000) "></path>
            </g>
        </g>
    </g>
</svg>