<?xml version="1.0" encoding="UTF-8"?>
<svg width="103px" height="279px" viewBox="0 0 103 279" version="1.1" xmlns="http://www.w3.org/2000/svg" xmlns:xlink="http://www.w3.org/1999/xlink">
    <!-- Generator: Sketch 59.1 (86144) - https://sketch.com -->
    <title>Group 76</title>
    <desc>Created with Sketch.</desc>
    <g id="Page-1" stroke="none" stroke-width="1" fill="none" fill-rule="evenodd">
        <g id="Group-76">
            <circle id="Oval-Copy-44" fill="#473494" cx="42" cy="35" r="35"></circle>
            <path d="M103,73 L103,73.3512168 C103,130.042574 56.9022343,176 0.0377584592,176 C0.0293673388,176 0.0293673388,175.980026 0.0377584592,175.940079 L0.0377584592,175.940079 L0.0377584592,173.295219 L0,167.75946 L0,114.684358 L0.0377584592,101.016549 L0.0377584592,73.3512168 L0,73.3512168 L103,73 L103,73 Z" id="Combined-Shape-Copy-14" fill="#FFA3A3" transform="translate(51.500000, 124.500000) scale(-1, 1) rotate(-90.000000) translate(-51.500000, -124.500000) "></path>
            <g id="Group-Copy-9" transform="translate(51.500000, 227.500000) scale(-1, -1) translate(-51.500000, -227.500000) translate(0.000000, 176.000000)" fill="#FCCD63">
                <path d="M103,-6.58029187e-13 C103,56.8853292 56.9022343,103 0.0377584592,103 C0.0293673388,103 0.0293673388,102.979958 0.0377584592,102.939874 L0.0377584592,102.939874 L0.0377584592,100.285964 L-2.27373675e-13,94.7312644 L-2.27373675e-13,41.4745646 L0.0377584592,27.7599907 L0.0377584592,-2.03670414e-13 Z" id="Combined-Shape-Copy-2" transform="translate(51.500000, 51.500000) scale(-1, 1) rotate(-90.000000) translate(-51.500000, -51.500000) "></path>
            </g>
        </g>
    </g>
</svg>