<svg xmlns="http://www.w3.org/2000/svg" xmlns:xlink="http://www.w3.org/1999/xlink" viewBox="0 1.6029261473704537e-8 52 59" version="1.1" preserveAspectRatio="xMidYMid meet" fill="#483493" fill-opacity="1" style="box-shadow: none; border-top-left-radius: 0px; border-top-right-radius: 0px; border-bottom-right-radius: 0px; border-bottom-left-radius: 0px; opacity: 1;" width="52px" height="59px">
    <!-- Generator: Sketch 59.1 (86144) - https://sketch.com -->
    <title>noun_your_2916916</title>
    <desc>Created with Sketch.</desc>
    <g id="Page-1" stroke="none" stroke-width="1" fill="" fill-rule="evenodd" style="undefined" fill-opacity="">
        <g id="noun_your_2916916" fill="" fill-rule="nonzero" style="undefined" fill-opacity="">
            <path d="M7.97811335,9.99995258 C10.0023563,10.0087377 11.8321958,8.79616714 12.6129683,6.92854849 C13.3937408,5.06092984 12.9713706,2.90681422 11.5431343,1.47232496 C10.114898,0.0378357022 7.96264005,-0.393948767 6.09161614,0.378645238 C4.22059223,1.15123924 3.00000307,2.97575 3.00000307,5 C2.99698359,7.75411069 5.22400579,9.99088301 7.97811335,9.99995258 Z M7.97811335,1.81821568 C9.2662863,1.8125423 10.4307928,2.58412475 10.9277132,3.77260238 C11.4246337,4.96108002 11.1559039,6.33191457 10.2470429,7.24481428 C9.33818177,8.15771398 7.96854707,8.43252408 6.7778701,7.94088579 C5.58719313,7.44924749 4.8104319,6.28818241 4.8104319,5.00000281 C4.808669,3.24753472 6.22564655,1.82426069 7.97811335,1.81821568 Z" id="Shape"/>
            <path d="M49.5323986,11 C49.1840558,11.5388937 48.7621579,12.0266311 48.2788974,12.4491167 C49.4099919,12.8185806 50.1750963,13.872375 50.1751845,15.0609129 L50.1751845,34.7363217 L39.2253752,34.7363217 L39.2253752,22.9210099 L46.0632791,19.1790217 C46.4857772,18.9275083 46.6340834,18.3877148 46.3992804,17.9560701 C46.1644774,17.5244254 45.6303328,17.3549217 45.189127,17.5720441 L29.1735419,26.3408705 C28.9610339,26.4568108 28.7110177,26.4833688 28.4788458,26.4146647 C28.2466739,26.3459606 28.0514998,26.1876623 27.9365341,25.9748164 C27.6958413,25.5314414 27.857998,24.9771754 28.2998479,24.7329778 L44.315433,15.9641514 C44.7379311,15.712638 44.8862373,15.1728445 44.6514343,14.7411998 C44.4166313,14.3095551 43.8824867,14.1400515 43.4412808,14.3571738 L39.2262915,16.6642299 L39.2262915,15.0609129 C39.2263797,14.2999916 39.5431956,13.5733536 40.1009018,13.0549363 C39.5852186,12.72143 39.1165005,12.3205569 38.7072064,11.8629726 C37.8704539,12.7175681 37.4023548,13.8656282 37.4033086,15.0609129 L37.4033086,17.6644728 L27.4247794,23.1278305 C26.0989511,23.8599249 25.6120306,25.5226598 26.3339219,26.8528887 C26.6786479,27.4923441 27.2648995,27.9677386 27.9623184,28.1733638 C28.6597372,28.3789891 29.4105094,28.2977994 30.047694,27.9478481 L37.4033086,23.9212528 L37.4033086,35.6514569 C37.4033035,36.1552684 37.8110386,36.5643251 38.3154873,36.5665922 L39.3234195,36.5665922 L40.7134497,58.1312978 C40.7289336,58.4604555 40.9210992,58.7556369 41.2160459,58.9033249 C41.5109925,59.051013 41.8627888,59.0282085 42.1361453,58.8436813 C42.4095019,58.6591541 42.5618494,58.3416404 42.5346,58.0132454 L41.1509839,36.5665922 L48.2523247,36.5665922 L46.8687086,58.0127878 C46.8523654,58.2550257 46.9330741,58.4938216 47.0930692,58.676612 C47.2530643,58.8594023 47.4792311,58.9712039 47.7217858,58.9874069 C47.7419444,58.9874069 47.7621031,58.9874069 47.7813454,58.9874069 C48.2625452,58.9848027 48.6597444,58.6108916 48.6907752,58.1312978 L50.0812635,36.5665922 L51.0891958,36.5665922 C51.5931071,36.5635726 52,36.1547357 52,35.6514569 L52,15.0609129 C51.9995928,13.3537488 51.0484815,11.7885123 49.5323986,11 L49.5323986,11 Z" id="Path"/>
            <path d="M43.9781133,11.9999526 C46.0023563,12.0087377 47.8321958,10.7961671 48.6129683,8.92854849 C49.3937408,7.06092984 48.9713706,4.90681422 47.5431343,3.47232496 C46.114898,2.0378357 43.96264,1.60605123 42.0916161,2.37864524 C40.2205922,3.15123924 39.0000031,4.97575 39.0000031,7 C38.9969836,9.75411069 41.2240058,11.990883 43.9781133,11.9999526 L43.9781133,11.9999526 Z M43.9781133,3.81821568 C45.2662863,3.8125423 46.4307928,4.58412475 46.9277132,5.77260238 C47.4246337,6.96108002 47.1559039,8.33191457 46.2470429,9.24481428 C45.3381818,10.157714 43.9685471,10.4325241 42.7778701,9.94088579 C41.5871931,9.44924749 40.8104319,8.28818241 40.8104319,7.00000281 C40.808669,5.24753472 42.2256465,3.82426069 43.9781133,3.81821568 Z" id="Shape"/>
            <path d="M28,17.902068 C28.0010515,16.7713904 27.2930899,15.7611854 26.229296,15.3754274 L26.229296,12.2825649 C26.8077108,11.4510072 26.8772122,10.3676725 26.4097914,9.46913977 C25.9423706,8.57060704 25.0150311,8.00490154 24.0014865,8 L14.1546412,8 C13.7934995,8.6803092 13.320033,9.29484753 12.7541868,9.81772703 L24.0014865,9.81772703 C24.5038896,9.81772703 24.9111678,10.2246391 24.9111678,10.7265905 C24.9111678,11.228542 24.5038896,11.6354541 24.0014865,11.6354541 L13.5856355,11.6354541 C13.0848318,11.6377057 12.6800427,12.043959 12.6800478,12.5443176 L12.6800478,33.9026101 L1.80935612,33.9026101 L1.80935612,12.5443176 C1.80944371,11.3639253 2.56901986,10.3173529 3.69194159,9.9504211 C3.21217717,9.53082679 2.79332816,9.04643266 2.44749756,8.51123573 C0.943250429,9.294962 0,10.8493486 0,12.5443176 L0,34.8114736 C0,35.3118322 0.404784004,35.7180855 0.905587742,35.7203371 L1.90623718,35.7203371 L3.28622372,57.1372514 C3.30159576,57.4641532 3.49237286,57.7573116 3.7851884,57.9039875 C4.07800394,58.0506633 4.4272583,58.0280151 4.6986397,57.8447526 C4.9700211,57.6614901 5.12126782,57.3461524 5.09421532,57.020008 L3.72059655,35.7203371 L10.7706267,35.7203371 L9.39837243,57.0195536 C9.364567,57.5200464 9.74300871,57.9532666 10.2439212,57.9874932 C10.2639342,57.9874932 10.2834923,57.9874932 10.3030505,57.9874932 C10.7807733,57.9849069 11.1751026,57.6135583 11.2059092,57.1372514 L12.5863506,35.7203371 L13.587,35.7203371 C14.0878038,35.7180855 14.4925928,35.3118322 14.4925878,34.8114736 L14.4925878,13.4531811 L24.0014865,13.4531811 C24.1410725,13.4521387 24.2803678,13.440288 24.4181205,13.4177354 L24.4181205,15.3754274 C23.1287852,15.8302622 22.3868821,17.1798924 22.6944733,18.5109935 C23.0020646,19.8420946 24.2610614,20.7301873 25.6194728,20.5742795 C26.9778842,20.4183717 28.0025218,19.2681815 28,17.902068 Z M25.3237083,18.7745769 C24.9710132,18.7773359 24.6514664,18.5673139 24.5143659,18.242637 C24.3772654,17.91796 24.4496769,17.5427243 24.6977685,17.2922466 C24.9458601,17.0417689 25.3206547,16.9654974 25.6470415,17.0990674 C25.9734284,17.2326375 26.1869738,17.5496804 26.1879075,17.902068 C26.1889226,18.3808207 25.8028762,18.7705801 25.3237083,18.7745769 L25.3237083,18.7745769 Z" id="Shape"/>
        </g>
    </g>
</svg>