<svg xmlns="http://www.w3.org/2000/svg" xmlns:xlink="http://www.w3.org/1999/xlink" viewBox="-1.862645149230957e-9 -5.587935447692871e-9 26 25" version="1.1" preserveAspectRatio="xMidYMid meet" style="box-shadow: none; border-top-left-radius: 0px; border-top-right-radius: 0px; border-bottom-right-radius: 0px; border-bottom-left-radius: 0px; opacity: 1;" fill="#ffffff" fill-opacity="0.95" width="26px" height="25px">
    <!-- Generator: Sketch 59.1 (86144) - https://sketch.com -->
    <title>noun_Cross_3040930</title>
    <desc>Created with Sketch.</desc>
    <g id="Page-1" stroke="none" stroke-width="1" fill="" fill-rule="evenodd" style="undefined" fill-opacity="">
        <g id="noun_Cross_3040930" fill="" fill-rule="nonzero" style="undefined" fill-opacity="">
            <path d="M25.0946262,25 C24.8609813,25 24.6273364,24.9415205 24.4521028,24.7660819 L1.26285047,1.49122807 C0.912383178,1.14035088 0.912383178,0.614035088 1.26285047,0.263157895 C1.61331776,-0.0877192982 2.13901869,-0.0877192982 2.48948598,0.263157895 L25.7371495,23.5380117 C26.0876168,23.8888889 26.0876168,24.4152047 25.7371495,24.7660819 C25.5619159,24.8830409 25.328271,25 25.0946262,25 Z" id="Path"/>
            <path d="M0.905373832,25 C0.671728972,25 0.438084112,24.9415205 0.262850467,24.7660819 C-0.0876168224,24.4152047 -0.0876168224,23.8888889 0.262850467,23.5380117 L23.510514,0.263157895 C23.8609813,-0.0877192982 24.3866822,-0.0877192982 24.7371495,0.263157895 C25.0876168,0.614035088 25.0876168,1.14035088 24.7371495,1.49122807 L1.5478972,24.7076023 C1.37266355,24.8830409 1.13901869,25 0.905373832,25 Z" id="Path"/>
        </g>
    </g>
</svg>