<?xml version="1.0" encoding="UTF-8"?>
<svg width="53px" height="53px" viewBox="0 0 53 53" version="1.1" xmlns="http://www.w3.org/2000/svg" xmlns:xlink="http://www.w3.org/1999/xlink">
    <!-- Generator: Sketch 59.1 (86144) - https://sketch.com -->
    <title>noun_painting_1172041</title>
    <desc>Created with Sketch.</desc>
    <g id="Page-1" stroke="none" stroke-width="1" fill="none" fill-rule="evenodd">
        <g id="noun_painting_1172041" fill="#483493" fill-rule="nonzero">
            <g id="Group">
                <path d="M44.7428571,25.18 C48.8204082,17.04 51.7959184,8.35 52.8979592,1.31 C53.0081633,0.87 52.677551,0.32 52.2367347,0.1 C51.7959184,-0.01 51.244898,0.1 50.9142857,0.43 C45.955102,6.04 40.9959184,14.62 37.1387755,23.53 C35.4857143,23.31 33.8326531,23.09 33.2816327,22.65 C31.6285714,21.44 31.9591837,19.02 32.6204082,15.28 C33.6122449,10.33 34.7142857,4.17 27.6612245,0.98 C19.5061224,-2.76 8.81632653,5.93 4.84897959,11.32 C-3.52653061,23.09 -0.771428571,39.48 11.0204082,47.84 C15.7591837,51.25 21.2693878,52.9 26.7795918,52.9 C32.7306122,52.9 38.6816327,50.92 43.2,46.96 C46.0653061,44.43 48.2693878,41.13 49.4816327,37.28 C50.5836735,33.98 50.4734694,31.12 49.3714286,29.03 C48.4897959,27.38 46.9469388,26.06 44.7428571,25.18 Z M49.8122449,5.49 C47.7183673,13.96 43.4204082,24.19 38.1306122,32.77 L36.3673469,31.89 C39.5632653,22.43 44.6326531,12.53 49.8122449,5.49 Z M37.5795918,34.86 C37.4693878,36.29 36.8081633,38.49 36.477551,39.26 C36.1469388,40.03 33.8326531,42.34 31.7387755,44.43 C31.9591837,41.46 32.2897959,38.27 32.6204082,37.5 C32.9510204,36.84 34.2734694,34.86 35.2653061,33.87 L36.477551,34.42 L37.5795918,34.86 Z M47.3877551,36.62 C46.2857143,40.03 44.4122449,43.11 41.7673469,45.31 C33.8326531,52.24 21.3795918,52.57 12.3428571,46.19 C1.54285714,38.38 -0.991836735,23.42 6.6122449,12.64 C10.2489796,7.58 20.1673469,-0.01 26.8897959,2.96 C32.4,5.38 31.5183673,10 30.5265306,14.73 C29.8653061,18.47 29.0938776,22.21 32.0693878,24.41 C32.9510204,25.07 34.4938776,25.4 36.3673469,25.62 C35.5959184,27.6 34.8244898,29.69 34.1632653,31.67 C32.7306122,32.77 30.9673469,35.52 30.5265306,36.51 C29.755102,38.27 29.4244898,45.53 29.3142857,47.07 C29.3142857,47.51 29.5346939,47.95 29.9755102,48.06 C30.4163265,48.28 30.7469388,48.17 31.1877551,47.84 C32.2897959,46.85 37.6897959,41.9 38.4612245,40.14 C38.9020408,39.26 39.8938776,36.07 39.7836735,34.31 C41.2163265,32 42.5387755,29.58 43.8612245,27.16 C45.6244898,27.82 46.8367347,28.81 47.4979592,30.02 C48.2693878,31.56 48.1591837,33.76 47.3877551,36.62 Z" id="Shape"></path>
                <path d="M21.7102041,5.49 C18.955102,5.49 16.6408163,7.69 16.6408163,10.55 C16.6408163,13.41 18.844898,15.61 21.7102041,15.61 C24.4653061,15.61 26.7795918,13.41 26.7795918,10.55 C26.7795918,7.69 24.5755102,5.49 21.7102041,5.49 Z M21.7102041,13.41 C20.1673469,13.41 18.844898,12.2 18.844898,10.55 C18.844898,8.9 20.0571429,7.69 21.7102041,7.69 C23.2530612,7.69 24.5755102,8.9 24.5755102,10.55 C24.5755102,12.2 23.3632653,13.41 21.7102041,13.41 Z" id="Shape"></path>
                <path d="M16.9714286,23.75 C16.9714286,21 14.7673469,18.69 11.9020408,18.69 C9.14693878,18.69 6.83265306,20.89 6.83265306,23.75 C6.83265306,26.61 9.03673469,28.81 11.9020408,28.81 C14.7673469,28.81 16.9714286,26.5 16.9714286,23.75 Z M9.14693878,23.75 C9.14693878,22.21 10.3591837,20.89 12.0122449,20.89 C13.555102,20.89 14.877551,22.1 14.877551,23.75 C14.877551,25.29 13.6653061,26.61 12.0122449,26.61 C10.3591837,26.61 9.14693878,25.29 9.14693878,23.75 Z" id="Shape"></path>
                <path d="M15.5387755,31.56 C12.7836735,31.56 10.4693878,33.76 10.4693878,36.62 C10.4693878,39.37 12.6734694,41.68 15.5387755,41.68 C18.4040816,41.68 20.6081633,39.48 20.6081633,36.62 C20.4979592,33.87 18.2938776,31.56 15.5387755,31.56 Z M15.5387755,39.48 C13.9959184,39.48 12.6734694,38.27 12.6734694,36.62 C12.6734694,35.08 13.8857143,33.76 15.5387755,33.76 C17.1918367,33.76 18.4040816,34.97 18.4040816,36.62 C18.2938776,38.16 17.0816327,39.48 15.5387755,39.48 Z" id="Shape"></path>
            </g>
        </g>
    </g>
</svg>