<?xml version="1.0" encoding="UTF-8"?>
<svg width="24px" height="35px" viewBox="0 0 24 35" version="1.1" xmlns="http://www.w3.org/2000/svg" xmlns:xlink="http://www.w3.org/1999/xlink">
    <!-- Generator: Sketch 59.1 (86144) - https://sketch.com -->
    <title>noun_remove location_310867</title>
    <desc>Created with Sketch.</desc>
    <g id="Page-1" stroke="none" stroke-width="1" fill="none" fill-rule="evenodd">
        <g id="noun_remove-location_310867" fill="#483493" fill-rule="nonzero">
            <g id="Group">
                <path d="M12.03125,34.453125 L11.375,33.46875 C10.9375,32.921875 0.546875,18.15625 0.546875,12.03125 C0.546875,5.6875 5.6875,0.546875 12.03125,0.546875 C18.375,0.546875 23.515625,5.6875 23.515625,12.03125 C23.515625,18.15625 13.125,32.921875 12.6875,33.46875 L12.03125,34.453125 Z M12.03125,2.1875 C6.5625,2.1875 2.1875,6.5625 2.1875,12.03125 C2.1875,16.734375 9.734375,28.21875 12.03125,31.609375 C14.328125,28.21875 21.875,16.734375 21.875,12.03125 C21.875,6.5625 17.5,2.1875 12.03125,2.1875 Z" id="Shape"></path>
                <rect id="Rectangle" x="7.4375" y="10.828125" width="9.078125" height="1.640625"></rect>
            </g>
        </g>
    </g>
</svg>