<?xml version="1.0" encoding="UTF-8"?>
<svg width="98px" height="136px" viewBox="0 0 98 136" version="1.1" xmlns="http://www.w3.org/2000/svg" xmlns:xlink="http://www.w3.org/1999/xlink">
    <!-- Generator: Sketch 59.1 (86144) - https://sketch.com -->
    <title>Group 71</title>
    <desc>Created with Sketch.</desc>
    <g id="Page-1" stroke="none" stroke-width="1" fill="none" fill-rule="evenodd">
        <g id="Group-71">
            <g id="Group-67-Copy-2" transform="translate(34.000000, 68.000000) rotate(90.000000) translate(-34.000000, -68.000000) translate(-34.000000, 34.000000)" fill="#F27268">
                <path d="M130.541029,-2.29121309e-13 L134.208209,0.0249279148 L135.960305,0.0249279148 L135.982358,0.0212347356 C135.994119,0.0200036759 136,0.0212347356 136,0.0249279148 C136,37.5665236 105.555363,68 68,68 L68,68 L68,0.0249279148 L86.3269842,0.0249279148 L95.3812659,-2.26968395e-13 L130.541029,-2.29121309e-13 Z M40.6187341,-2.26968395e-13 L49.6730158,0.0249279148 L68,0.0249279148 L68,68 C30.444637,68 1.97530881e-12,37.5665236 1.97530881e-12,0.0249279148 C1.97530881e-12,0.0212347356 0.00588070543,0.0200036759 0.0176421163,0.0212347356 L0.0396947616,0.0249279148 L1.79179054,0.0249279148 L5.45897105,-2.29121309e-13 L40.6187341,-2.26968395e-13 Z" id="Combined-Shape"></path>
            </g>
            <circle id="Oval-Copy-46" fill="#FCCD63" transform="translate(68.000000, 68.000000) rotate(90.000000) translate(-68.000000, -68.000000) " cx="68" cy="68" r="30"></circle>
        </g>
    </g>
</svg>