<?xml version="1.0" encoding="UTF-8"?>
<svg width="32px" height="43px" viewBox="0 0 32 43" version="1.1" xmlns="http://www.w3.org/2000/svg" xmlns:xlink="http://www.w3.org/1999/xlink">
    <!-- Generator: Sketch 59.1 (86144) - https://sketch.com -->
    <title>noun_ufo_1017508</title>
    <desc>Created with Sketch.</desc>
    <g id="Page-1" stroke="none" stroke-width="1" fill="none" fill-rule="evenodd">
        <g id="noun_ufo_1017508" fill="#483493" fill-rule="nonzero">
            <g id="Group" transform="translate(10.000000, 25.000000)">
                <g id="Path">
                    <path d="M1.33036364,12.2011875 C0.878727273,12.2011875 0.512181818,11.8231875 0.512181818,11.3574375 L0.512181818,1.1154375 C0.512181818,0.649125 0.878727273,0.2716875 1.33036364,0.2716875 C1.78254545,0.2716875 2.14854545,0.649125 2.14854545,1.1154375 L2.14854545,11.3574375 C2.14854545,11.82375 1.78254545,12.2011875 1.33036364,12.2011875 Z"></path>
                    <path d="M10.7394545,12.2011875 C10.2878182,12.2011875 9.92127273,11.8231875 9.92127273,11.3574375 L9.92127273,1.1154375 C9.92127273,0.649125 10.2878182,0.2716875 10.7394545,0.2716875 C11.1921818,0.2716875 11.5576364,0.649125 11.5576364,1.1154375 L11.5576364,11.3574375 C11.5576364,11.82375 11.1927273,12.2011875 10.7394545,12.2011875 Z"></path>
                </g>
                <path d="M6.03490909,17.5921875 C5.58327273,17.5921875 5.21672727,17.2141875 5.21672727,16.7484375 L5.21672727,4.080375 C5.21672727,3.614625 5.58272727,3.236625 6.03490909,3.236625 C6.48709091,3.236625 6.85309091,3.614625 6.85309091,4.080375 L6.85309091,16.7484375 C6.85309091,17.21475 6.48709091,17.5921875 6.03490909,17.5921875 Z" id="Path"></path>
            </g>
            <path d="M31.6303988,17.6426734 C31.6303988,17.6426734 26.3139208,12.328326 26.2498269,12.2786487 L26.2498269,8.37145076 C26.2498269,3.75537543 21.6516425,0 15.9997766,0 C10.3479107,0 5.75027888,3.75537543 5.75027888,8.37145076 L5.75027888,12.2780906 C5.68563245,12.3277678 0.369706957,17.6426734 0.369706957,17.6426734 C0.02216334,17.9915304 -0.0888959079,18.4363928 0.0729964286,18.8332524 C0.234888765,19.2301121 0.624424933,19.4673349 1.11396968,19.4673349 L3.46886776,19.4673349 C3.51638565,19.5315245 6.50503974,22.3904771 6.50503974,22.3904771 C6.8829727,22.7493812 7.50899324,23 8.02782226,23 L22.7434489,23 C23.2153125,23 23.8385704,22.8007329 24.2253439,22.5255545 C24.2253439,22.5255545 28.4019452,19.5354317 28.4643815,19.4673349 L30.8861361,19.4673349 C31.3762334,19.4673349 31.765217,19.2301121 31.9271094,18.8332524 C32.0890017,18.4363928 31.9773899,17.9915304 31.6303988,17.6426734 Z M23.2700134,21.1563607 C23.1611643,21.2339465 22.8760569,21.3254866 22.7434489,21.3254866 L8.02726973,21.3254866 C7.93333902,21.3249284 7.70901039,21.2350629 7.63994369,21.1708732 L5.8806768,19.5008251 L25.5961797,19.5008251 L23.2700134,21.1563607 Z M7.40732706,8.37200893 C7.40732706,4.67914867 11.2618013,1.67507159 15.9992241,1.67507159 C20.7366469,1.67507159 24.5916737,4.67914867 24.5916737,8.37200893 L24.5916737,11.7924817 L7.40732706,11.7924817 L7.40732706,8.37200893 Z M2.57100071,17.7928214 L6.72936837,13.6177013 C6.79456733,13.554628 7.00010982,13.4686696 7.08962026,13.4669951 L24.9088279,13.4669951 C24.9988909,13.4686696 25.2044334,13.554628 25.2690798,13.6171431 L29.4274475,17.7922633 L2.57100071,17.7922633 L2.57100071,17.7928214 Z" id="Shape"></path>
            <circle id="Oval" cx="9" cy="16" r="1"></circle>
            <circle id="Oval" cx="16" cy="16" r="1"></circle>
            <circle id="Oval" cx="24" cy="16" r="1"></circle>
        </g>
    </g>
</svg>