<?xml version="1.0" encoding="UTF-8"?>
<svg width="441px" height="407px" viewBox="0 0 441 407" version="1.1" xmlns="http://www.w3.org/2000/svg" xmlns:xlink="http://www.w3.org/1999/xlink">
    <!-- Generator: Sketch 59.1 (86144) - https://sketch.com -->
    <title>Group</title>
    <desc>Created with Sketch.</desc>
    <g id="Page-1" stroke="none" stroke-width="1" fill="none" fill-rule="evenodd">
        <g id="Philteh_new-Copy" transform="translate(-485.000000, -253.000000)">
            <g id="Group" transform="translate(485.000000, 253.000000)">
                <circle id="Oval" fill="#F27268" cx="211" cy="163" r="35"></circle>
                <circle id="Oval-Copy-2" fill="#473494" cx="373" cy="35" r="35"></circle>
                <path d="M441,65 C441,102.555363 410.566524,133 373.024928,133 C373.019388,133 373.019388,132.986768 373.024928,132.960305 L373.024928,132.960305 L373.024928,131.208209 L373,127.541029 L373,92.3812659 L373.024928,83.3269842 L373.024928,65 Z" id="Combined-Shape-Copy-2" fill="#FFA3A3" transform="translate(407.000000, 99.000000) scale(-1, 1) rotate(-90.000000) translate(-407.000000, -99.000000) "></path>
                <path d="M272,201 L272,201.351217 C272,258.042574 225.902234,304 169.037758,304 C169.029367,304 169.029367,303.980026 169.037758,303.940079 L169.037758,303.940079 L169.037758,301.295219 L169,295.75946 L169,242.684358 L169.037758,229.016549 L169.037758,201.351217 L169,201.351217 L272,201 L272,201 Z" id="Combined-Shape-Copy-4" fill="#FFA3A3" transform="translate(220.500000, 252.500000) scale(-1, 1) rotate(-90.000000) translate(-220.500000, -252.500000) "></path>
                <path d="M441,133 C441,170.555363 410.566524,201 373.024928,201 C373.019388,201 373.019388,200.986768 373.024928,200.960305 L373.024928,200.960305 L373.024928,199.208209 L373,195.541029 L373,160.381266 L373.024928,151.326984 L373.024928,133 Z" id="Combined-Shape-Copy-2" fill="#FCCD63" transform="translate(407.000000, 167.000000) scale(1, -1) rotate(-90.000000) translate(-407.000000, -167.000000) "></path>
                <g id="Group-Copy-8" transform="translate(220.500000, 355.500000) scale(-1, -1) translate(-220.500000, -355.500000) translate(169.000000, 304.000000)" fill="#FCCD63">
                    <path d="M103,-6.58084698e-13 C103,56.8853292 56.9022343,103 0.0377584592,103 C0.0293673388,103 0.0293673388,102.979958 0.0377584592,102.939874 L0.0377584592,102.939874 L0.0377584592,100.285964 L-2.27373675e-13,94.7312644 L-2.27373675e-13,41.4745646 L0.0377584592,27.7599907 L0.0377584592,-2.03725925e-13 Z" id="Combined-Shape-Copy-2" transform="translate(51.500000, 51.500000) scale(-1, 1) rotate(-90.000000) translate(-51.500000, -51.500000) "></path>
                </g>
                <path d="M373,133 C373,170.555363 342.566524,201 305.024928,201 C305.019388,201 305.019388,200.986768 305.024928,200.960305 L305.024928,200.960305 L305.024928,199.208209 L305,195.541029 L305,160.381266 L305.024928,151.326984 L305.024928,133 Z" id="Combined-Shape-Copy-2" fill="#FFA3A3" transform="translate(339.000000, 167.000000) scale(-1, -1) rotate(-90.000000) translate(-339.000000, -167.000000) "></path>
                <path d="M373,65 C373,102.555363 342.566524,133 305.024928,133 C305.019388,133 305.019388,132.986768 305.024928,132.960305 L305.024928,132.960305 L305.024928,131.208209 L305,127.541029 L305,92.3812659 L305.024928,83.3269842 L305.024928,65 Z" id="Combined-Shape-Copy-2" fill="#FCCD63" transform="translate(339.000000, 99.000000) rotate(-90.000000) translate(-339.000000, -99.000000) "></path>
                <path d="M373,269 C393.549167,268.505466 410.752039,260.596777 424.608618,245.273934 C433.370844,235.584513 437.252472,226.168175 439.302514,216.930515 C440.097109,213.350002 440.662937,208.03983 441,201 C423.339172,203.283155 408.841103,210.092446 397.505794,221.427874 C386.170485,232.763301 378.001887,248.620677 373,269 Z" id="Path" fill="#F27268"></path>
                <path d="M68,407 C88.5491667,406.505466 105.752039,398.596777 119.608618,383.273934 C128.370844,373.584513 132.252472,364.168175 134.302514,354.930515 C135.097109,351.350002 135.662937,346.03983 136,339 C118.339172,341.283155 103.841103,348.092446 92.505794,359.427874 C81.1704846,370.763301 73.0018866,386.620677 68,407 Z" id="Path-Copy-4" fill="#FFA3A3"></path>
                <path d="M305,269 C325.549167,268.505466 342.752039,260.596777 356.608618,245.273934 C365.370844,235.584513 369.252472,226.168175 371.302514,216.930515 C372.097109,213.350002 372.662937,208.03983 373,201 C355.339172,203.283155 340.841103,210.092446 329.505794,221.427874 C318.170485,232.763301 310.001887,248.620677 305,269 Z" id="Path-Copy" fill="#473494" transform="translate(339.000000, 235.000000) scale(-1, 1) translate(-339.000000, -235.000000) "></path>
                <path d="M0,407 C20.5491667,406.505466 37.7520393,398.596777 51.6086179,383.273934 C60.3708439,373.584513 64.2524724,364.168175 66.3025136,354.930515 C67.0971086,351.350002 67.6629374,346.03983 68,339 C50.3391721,341.283155 35.8411035,348.092446 24.505794,359.427874 C13.1704846,370.763301 5.00188661,386.620677 0,407 Z" id="Path-Copy-5" fill="#473494" transform="translate(34.000000, 373.000000) scale(-1, 1) translate(-34.000000, -373.000000) "></path>
                <g id="Group-5-Copy" transform="translate(0.000000, 204.000000)">
                    <circle id="Oval" fill="#FCCD63" cx="68" cy="68" r="68"></circle>
                    <circle id="Oval-Copy-3" fill="#FFFFFF" cx="68" cy="68" r="35"></circle>
                </g>
            </g>
        </g>
    </g>
</svg>