<?xml version="1.0" encoding="UTF-8"?>
<svg width="42px" height="42px" viewBox="0 0 42 42" version="1.1" xmlns="http://www.w3.org/2000/svg" xmlns:xlink="http://www.w3.org/1999/xlink">
    <!-- Generator: Sketch 59.1 (86144) - https://sketch.com -->
    <title>Group 37</title>
    <desc>Created with Sketch.</desc>
    <g id="Page-1" stroke="none" stroke-width="1" fill="none" fill-rule="evenodd">
        <g id="Group-37" fill="#483493">
            <g id="Group-35" transform="translate(0.000000, 18.359519)">
                <path d="M21.2,1.3262678 C26.8333044,1.3262678 31.4,5.89296335 31.4,11.5262678 C31.4,17.1595723 26.8333044,21.7262678 21.2,21.7262678 C15.5666956,21.7262678 11,17.1595723 11,11.5262678 C11,5.89296335 15.5666956,1.3262678 21.2,1.3262678 Z M21.2,3.3662678 C16.6933564,3.3662678 13.04,7.01962424 13.04,11.5262678 C13.04,16.0329114 16.6933564,19.6862678 21.2,19.6862678 C25.7066436,19.6862678 29.36,16.0329114 29.36,11.5262678 C29.36,7.01962424 25.7066436,3.3662678 21.2,3.3662678 Z" id="Combined-Shape"></path>
                <path d="M21.4791973,-7.531753e-13 C26.3259033,-7.531753e-13 30.994061,2.04042321 35.4442236,5.5262678 C39.2942759,8.54204169 40.4343148,10.1335793 41.2343148,11.2444897 C41.4201807,11.5025901 41.6016997,11.7409828 41.7788718,11.9596678 C35.0825005,19.4698838 28.0676481,23.2249918 20.7343148,23.2249918 C13.4009815,23.2249918 6.4895432,19.4698838 4.26325641e-14,11.9596678 C4.160616,7.25361485 8.07205426,3.98820161 11.7343148,2.16342809 C14.2511914,0.909358451 16.912187,-7.531753e-13 21.4791973,-7.531753e-13 Z M21.3982054,1.6240539 C17.638904,1.6240539 15.1715049,2.40605886 13.0032946,3.48449904 C9.84837203,5.05371739 6.39152575,7.86181729 2.63275582,11.9087988 C8.39782351,18.3672269 14.4390757,21.596441 20.7565125,21.596441 C27.0739492,21.596441 33.2477403,18.3672269 39.2778857,11.9087988 C38.9359011,11.5445484 38.6734546,11.2541398 38.4905461,11.0375728 C37.6858883,10.0848434 36.745337,8.96980302 33.4286376,6.37638108 C29.5949621,3.3787207 25.4723258,1.6240539 21.3982054,1.6240539 Z" id="Combined-Shape"></path>
            </g>
            <g id="Group-36" transform="translate(26.000000, 0.000000)">
                <rect id="Rectangle" transform="translate(8.000000, 7.500000) rotate(45.000000) translate(-8.000000, -7.500000) " x="7" y="-2" width="2" height="19"></rect>
                <rect id="Rectangle-Copy-35" transform="translate(8.000000, 7.500000) scale(-1, 1) rotate(45.000000) translate(-8.000000, -7.500000) " x="7" y="-2" width="2" height="19"></rect>
            </g>
        </g>
    </g>
</svg>