<?xml version="1.0" encoding="UTF-8"?>
<svg width="92px" height="70px" viewBox="0 0 92 70" version="1.1" xmlns="http://www.w3.org/2000/svg" xmlns:xlink="http://www.w3.org/1999/xlink">
    <!-- Generator: Sketch 59.1 (86144) - https://sketch.com -->
    <title>Scale</title>
    <desc>Created with Sketch.</desc>
    <g id="Scale" stroke="none" stroke-width="1" fill="none" fill-rule="evenodd">
        <rect fill="#FFFFFF" x="0" y="0" width="92" height="70"></rect>
        <g id="Group-46" transform="translate(46.000000, 35.000000) scale(-1, -1) rotate(179.000000) translate(-46.000000, -35.000000) translate(11.000000, 17.000000)">
            <g id="noun_Jet_99295" transform="translate(31.472122, 26.104984) scale(-1, 1) translate(-31.472122, -26.104984) translate(0.972122, 17.104984)" fill="#483493" fill-rule="nonzero">
                <path d="M38.63386,12 L23.3842192,12 C22.8220157,12 22.3675764,12.448 22.3675764,13 C22.3675764,13.552 22.8220157,14 23.3842192,14 L38.63386,14 C39.1960635,14 39.6505028,13.552 39.6505028,13 C39.6505028,12.448 39.1960635,12 38.63386,12 Z M59.9833573,8 L59.597033,8 L60.9796671,1.196 C61.0396491,0.902 60.9603509,0.597 60.7692221,0.366 C60.57606,0.134 60.2883501,0 59.9833573,0 L54.9001436,0 C54.6673325,0 54.4457043,0.077 54.2647419,0.219 L44.3768748,8 L34.7513015,8 C33.7183925,7.629 28.7012606,6 20.3322577,6 C16.4761318,6 12.73387,8.406 11.8026252,9.048 C10.4586235,9.261 4.24083664,10.371 0.406060276,13.2 C0.170199164,13.374 0.0217693261,13.64 0.00245311427,13.929 C-0.0178797402,14.217 0.0888677459,14.501 0.297279505,14.706 C0.435542915,14.842 3.70811585,18 9.15020436,18 L42.6994143,18 C42.7878622,18 42.8763101,17.989 42.9617081,17.966 L58.211349,13.966 C58.6566385,13.85 58.9667145,13.453 58.9667145,13 L58.9667145,11.1 L59.1903759,10 L59.9833573,10 C60.5455607,10 61,9.552 61,9 C61,8.448 60.5455607,8 59.9833573,8 Z M57.5230819,8 L49.81693,8 C49.2547266,8 48.8002873,8.448 48.8002873,9 C48.8002873,9.552 49.2547266,10 49.81693,10 L57.1174414,10 L56.953762,10.805 C56.9405456,10.869 56.9334291,10.934 56.9334291,11 L56.9334291,12.232 L42.5672507,16 L9.151221,16 C6.18465753,16 3.95617667,14.869 2.74942176,14.068 C6.63706354,11.816 12.2824806,10.998 12.3444958,10.989 C12.5132585,10.966 12.6728714,10.9 12.8101182,10.8 C12.847734,10.772 16.6642107,7.999 20.3332743,7.999 C29.1424836,7.999 34.1402992,9.909 34.1901147,9.928 C34.3090619,9.975 34.4381755,9.999 34.5662725,9.999 L44.7326997,9.999 C44.9644943,9.999 45.187139,9.922 45.3681015,9.78 L55.2559686,1.999 L58.7440698,1.999 L57.5230819,8 Z" id="Shape"></path>
            </g>
            <path d="M64.3248683,14.558196 C63.1125254,15.5851816 61.7869946,16.0986744 60.3482759,16.0986744 C58.9095572,16.0986744 53.5653216,16.0986744 44.3155693,16.0986744 L36.3287209,14.0630779 L35.3248683,8.09867445 L37.8376896,8.09867445 L42.9610284,12.0826054 L47.7878148,12.0826054 C50.885634,11.2013019 53.3006303,10.9238163 55.0328039,11.2501487 C56.7649775,11.576481 58.0872779,11.9930132 58.9997049,12.4997453 C60.6532768,12.7562259 61.7857525,13.0026311 62.3971321,13.2389609 C63.0085117,13.4752907 63.6510904,13.9150357 64.3248683,14.558196 Z" id="Path-61" stroke="#483493" stroke-width="1.5"></path>
            <path d="M69.6497254,5.69087193 C68.6464071,6.58948437 67.5494161,7.03879059 66.3587524,7.03879059 C65.1680886,7.03879059 60.745273,7.03879059 53.0903055,7.03879059 L46.4805,5.25764358 L45.6497254,0.0387905947 L47.7293016,0.0387905947 L51.9693062,3.52473018 L55.963888,3.52473018 C58.4356942,2.84223228 60.3883587,2.64375374 61.8218817,2.92929455 C63.2554047,3.21483535 64.3956753,3.5349797 65.2426936,3.88972759 C66.6111669,4.11414813 67.5483882,4.32975269 68.0543575,4.53654126 C68.5603268,4.74332984 69.0921161,5.12810673 69.6497254,5.69087193 Z" id="Path-61-Copy" stroke="#483493" stroke-width="1.5"></path>
        </g>
    </g>
</svg>