<?xml version="1.0" encoding="UTF-8"?>
<svg width="467px" height="333px" viewBox="0 0 467 333" version="1.1" xmlns="http://www.w3.org/2000/svg" xmlns:xlink="http://www.w3.org/1999/xlink">
    <!-- Generator: Sketch 59.1 (86144) - https://sketch.com -->
    <title>Group 66</title>
    <desc>Created with Sketch.</desc>
    <g id="Page-1" stroke="none" stroke-width="1" fill="none" fill-rule="evenodd">
        <g id="Group-66">
            <g id="Group-65">
                <path d="M4.26325641e-14,130.371014 C74.7834034,41.0844319 152.552696,-2.34018943 233.307879,0.0971494828 L233.307879,130.371014 L4.26325641e-14,130.371014 Z" id="Path-47" fill="#FCCD63"></path>
                <path d="M233,130.371014 C307.783403,41.0844319 385.552696,-2.34018943 466.307879,0.0971494828 L466.307879,130.371014 L233,130.371014 Z" id="Path-47-Copy" fill="#F9DB96" transform="translate(349.653939, 65.185507) scale(-1, 1) translate(-349.653939, -65.185507) "></path>
            </g>
            <g id="Group-65-Copy" transform="translate(233.500000, 267.500000) scale(1, -1) translate(-233.500000, -267.500000) translate(0.000000, 202.000000)">
                <path d="M4.26325641e-14,130.371014 C74.7834034,41.0844319 152.552696,-2.34018943 233.307879,0.0971494828 L233.307879,130.371014 L4.26325641e-14,130.371014 Z" id="Path-47" fill="#F78A8A"></path>
                <path d="M233,130.371014 C307.783403,41.0844319 385.552696,-2.34018943 466.307879,0.0971494828 L466.307879,130.371014 L233,130.371014 Z" id="Path-47-Copy" fill="#AE9DF4" transform="translate(349.653939, 65.185507) scale(-1, 1) translate(-349.653939, -65.185507) "></path>
            </g>
            <circle id="Oval-Copy-43" fill="#473494" cx="233" cy="166" r="86"></circle>
        </g>
    </g>
</svg>