<?xml version="1.0" encoding="UTF-8"?>
<svg width="98px" height="94px" viewBox="0 0 98 94" version="1.1" xmlns="http://www.w3.org/2000/svg" xmlns:xlink="http://www.w3.org/1999/xlink">
    <!-- Generator: Sketch 59.1 (86144) - https://sketch.com -->
    <title>No_money Copy 2</title>
    <desc>Created with Sketch.</desc>
    <g id="No_money-Copy-2" stroke="none" stroke-width="1" fill="none" fill-rule="evenodd">
        <rect fill="#FFFFFF" x="0" y="0" width="98" height="94"></rect>
        <g id="Group-45" transform="translate(9.000000, 8.000000)">
            <path d="M39.992009,69 L33.1166841,69 C32.8010527,65.5374217 32.2490957,62.9430132 31.4608131,61.2167746 C30.1888461,58.4313286 27.4130656,55.3465661 25.7122736,53.429064 C23.328185,50.7412015 21.9342594,47.3107351 21.3362748,43.8567217 C20.6779868,40.0543908 20.9768589,36.6274194 22.315306,33.3886415 C24.8695899,27.2077781 30.146072,22.6530026 36.6775285,21.3110199 C37.9801142,21.0433848 39.302318,21 40,21" id="Path-60" stroke="#483493" stroke-width="2"></path>
            <path d="M58.992009,69 L52.1166841,69 C51.8010527,65.5374217 51.2490957,62.9430132 50.4608131,61.2167746 C49.1888461,58.4313286 46.4130656,55.3465661 44.7122736,53.429064 C42.328185,50.7412015 40.9342594,47.3107351 40.3362748,43.8567217 C39.6779868,40.0543908 39.9768589,36.6274194 41.315306,33.3886415 C43.8695899,27.2077781 49.146072,22.6530026 55.6775285,21.3110199 C56.9801142,21.0433848 58.302318,21 59,21" id="Path-60-Copy" stroke="#483493" stroke-width="2" transform="translate(49.500000, 45.000000) scale(-1, 1) translate(-49.500000, -45.000000) "></path>
            <rect id="Rectangle" fill="#483493" x="33" y="73" width="14" height="2" rx="1"></rect>
            <rect id="Rectangle-Copy" fill="#483493" x="0" y="41" width="14" height="2" rx="1"></rect>
            <path d="M34,6 L46,6 C46.5522847,6 47,6.44771525 47,7 C47,7.55228475 46.5522847,8 46,8 L34,8 C33.4477153,8 33,7.55228475 33,7 C33,6.44771525 33.4477153,6 34,6 Z" id="Rectangle-Copy-3" fill="#483493" transform="translate(40.000000, 7.000000) rotate(90.000000) translate(-40.000000, -7.000000) "></path>
            <path d="M9.33333333,17.3333333 L21.5,17.3333333 C22.0522847,17.3333333 22.5,17.7810486 22.5,18.3333333 C22.5,18.8856181 22.0522847,19.3333333 21.5,19.3333333 L9.33333333,19.3333333 C8.78104858,19.3333333 8.33333333,18.8856181 8.33333333,18.3333333 C8.33333333,17.7810486 8.78104858,17.3333333 9.33333333,17.3333333 Z" id="Rectangle-Copy-4" fill="#483493" transform="translate(15.416667, 18.333333) rotate(45.000000) translate(-15.416667, -18.333333) "></path>
            <path d="M9.33333333,62.0979287 L21.5,62.0979287 C22.0522847,62.0979287 22.5,62.5456439 22.5,63.0979287 C22.5,63.6502134 22.0522847,64.0979287 21.5,64.0979287 L9.33333333,64.0979287 C8.78104858,64.0979287 8.33333333,63.6502134 8.33333333,63.0979287 C8.33333333,62.5456439 8.78104858,62.0979287 9.33333333,62.0979287 Z" id="Rectangle-Copy-6" fill="#483493" transform="translate(15.416667, 63.097929) scale(1, -1) rotate(45.000000) translate(-15.416667, -63.097929) "></path>
            <path d="M58.5,17.3333333 L70.6666667,17.3333333 C71.2189514,17.3333333 71.6666667,17.7810486 71.6666667,18.3333333 C71.6666667,18.8856181 71.2189514,19.3333333 70.6666667,19.3333333 L58.5,19.3333333 C57.9477153,19.3333333 57.5,18.8856181 57.5,18.3333333 C57.5,17.7810486 57.9477153,17.3333333 58.5,17.3333333 Z" id="Rectangle-Copy-5" fill="#483493" transform="translate(64.583333, 18.333333) rotate(135.000000) translate(-64.583333, -18.333333) "></path>
            <path d="M58.5,62.0979287 L70.6666667,62.0979287 C71.2189514,62.0979287 71.6666667,62.5456439 71.6666667,63.0979287 C71.6666667,63.6502134 71.2189514,64.0979287 70.6666667,64.0979287 L58.5,64.0979287 C57.9477153,64.0979287 57.5,63.6502134 57.5,63.0979287 C57.5,62.5456439 57.9477153,62.0979287 58.5,62.0979287 Z" id="Rectangle-Copy-7" fill="#483493" transform="translate(64.583333, 63.097929) scale(1, -1) rotate(135.000000) translate(-64.583333, -63.097929) "></path>
            <rect id="Rectangle-Copy-2" fill="#483493" x="66" y="41" width="14" height="2" rx="1"></rect>
            <rect id="Rectangle-Copy-36" fill="#483493" x="34" y="77" width="12" height="2" rx="1"></rect>
        </g>
    </g>
</svg>