<?xml version="1.0" encoding="UTF-8"?>
<svg width="136px" height="201px" viewBox="0 0 136 201" version="1.1" xmlns="http://www.w3.org/2000/svg" xmlns:xlink="http://www.w3.org/1999/xlink">
    <!-- Generator: Sketch 59.1 (86144) - https://sketch.com -->
    <title>Group 75 Copy</title>
    <desc>Created with Sketch.</desc>
    <g id="Page-1" stroke="none" stroke-width="1" fill="none" fill-rule="evenodd">
        <g id="Group-75-Copy">
            <g id="Group-73" transform="translate(0.000000, 133.000000)">
                <path d="M68,68 C88.5491667,67.5054658 105.752039,59.5967771 119.608618,44.2739338 C128.370844,34.5845134 132.252472,25.1681748 134.302514,15.930515 C135.097109,12.3500021 135.662937,7.03983041 136,0 C118.339172,2.28315479 103.841103,9.09244599 92.505794,20.4278736 C81.1704846,31.7633012 73.0018866,47.6206767 68,68 Z" id="Path-Copy-2" fill="#F27268"></path>
                <path d="M0,68 C20.5491667,67.5054658 37.7520393,59.5967771 51.6086179,44.2739338 C60.3708439,34.5845134 64.2524724,25.1681748 66.3025136,15.930515 C67.0971086,12.3500021 67.6629374,7.03983041 68,0 C50.3391721,2.28315479 35.8411035,9.09244599 24.505794,20.4278736 C13.1704846,31.7633012 5.00188661,47.6206767 0,68 Z" id="Path-Copy-3" fill="#7864CC" transform="translate(34.000000, 34.000000) scale(-1, 1) translate(-34.000000, -34.000000) "></path>
            </g>
            <g id="Group-5">
                <circle id="Oval" fill="#FCCD63" cx="68" cy="68" r="68"></circle>
                <circle id="Oval-Copy-3" fill="#FFFFFF" cx="68" cy="68" r="35"></circle>
            </g>
        </g>
    </g>
</svg>