<?xml version="1.0" encoding="UTF-8"?>
<svg width="92px" height="70px" viewBox="0 0 92 70" version="1.1" xmlns="http://www.w3.org/2000/svg" xmlns:xlink="http://www.w3.org/1999/xlink">
    <!-- Generator: Sketch 59.1 (86144) - https://sketch.com -->
    <title>No_money Copy</title>
    <desc>Created with Sketch.</desc>
    <g id="No_money-Copy" stroke="none" stroke-width="1" fill="none" fill-rule="evenodd">
        <rect fill="#FFFFFF" x="0" y="0" width="92" height="70"></rect>
        <g id="Group-2" transform="translate(-4.197661, -19.333700)">
            <g id="Group" transform="translate(0.197661, 0.333700)">
                <g id="noun_Airplane_537982" transform="translate(51.890006, 51.858579) scale(1, -1) rotate(45.000000) translate(-51.890006, -51.858579) translate(14.890006, 15.858579)" fill="#483493" fill-rule="nonzero">
                    <path d="M11.0557111,40.6934802 L26.1304586,42.9008567 C26.9393474,42.9744359 27.674701,43.0480151 28.4835899,43.0480151 C29.1454081,43.0480151 30.6161151,43.0480151 31.6456101,43.0480151 L21.7918727,71.4495925 L27.0864182,71.4495925 C29.9542969,71.4495925 32.6015697,69.6836913 33.925206,66.9612603 L48.1910646,43.0480151 L59.7361151,43.0480151 C62.9716707,43.0480151 73.2666202,40.5463218 73.2666202,36.205148 C73.2666202,31.8639743 62.9716707,29.362281 59.7361151,29.362281 L48.1910646,29.362281 L33.9987414,5.52261499 C32.6015697,2.72660478 29.9542969,0.960703601 27.0864182,0.960703601 L21.7918727,0.960703601 L31.6456101,29.362281 C30.5425798,29.362281 29.1454081,29.362281 28.4835899,29.362281 C27.674701,29.362281 26.8658121,29.4358602 26.1304586,29.5094394 L11.0557111,31.7168159 L6.34944846,25.3154241 L0.466620177,25.3154241 L0.466620177,47.0212928 L6.27591311,47.0212928 L11.0557111,40.6934802 Z M2.37853937,45.1818124 L2.37853937,27.2284837 L5.39348886,27.2284837 L10.2468222,33.7770339 L26.3510646,31.3489198 C27.0864182,31.2753406 27.7482363,31.2017614 28.4835899,31.2017614 C29.3660141,31.2017614 31.4985394,31.2017614 32.454499,31.2017614 L34.2193474,31.2017614 L24.4391454,2.800184 L27.0864182,2.800184 C29.2189434,2.800184 31.204398,4.12460989 32.3074283,6.40556558 L47.1615697,31.2017614 L59.7361151,31.2017614 C63.5599535,31.2017614 71.354701,33.9241924 71.354701,36.205148 C71.354701,38.4861037 63.5599535,41.2085347 59.7361151,41.2085347 L47.1615697,41.2085347 L32.3074283,66.0783097 C31.204398,68.2856862 29.2189434,69.6101121 27.0864182,69.6101121 L24.4391454,69.6101121 L34.2928828,41.2085347 L32.5280343,41.2085347 C31.4985394,41.2085347 29.3660141,41.2085347 28.5571252,41.2085347 C27.8217717,41.2085347 27.0864182,41.1349555 26.4246,41.0613763 L10.2468222,38.6332622 L5.39348886,45.1818124 L2.37853937,45.1818124 Z" id="Shape"></path>
                </g>
                <line x1="55.7389556" y1="39.4810226" x2="44.1223518" y2="50.7601736" id="Path-58" stroke="#483493" stroke-width="1.7"></line>
                <line x1="63.2061858" y1="48.3411642" x2="52.8061858" y2="58.7411642" id="Path-58-Copy" stroke="#483493" stroke-width="1.6"></line>
            </g>
        </g>
    </g>
</svg>