<?xml version="1.0" encoding="UTF-8"?>
<svg width="165px" height="158px" viewBox="0 0 165 158" version="1.1" xmlns="http://www.w3.org/2000/svg" xmlns:xlink="http://www.w3.org/1999/xlink">
    <!-- Generator: Sketch 59.1 (86144) - https://sketch.com -->
    <title>Group 68 Copy 3</title>
    <desc>Created with Sketch.</desc>
    <g id="Page-1" stroke="none" stroke-width="1" fill="none" fill-rule="evenodd">
        <g id="Group-68-Copy-3">
            <g id="Group-62-Copy" transform="translate(39.000000, 0.000000)" fill="#FCCD63">
                <circle id="Oval-Copy-2" cx="42.5" cy="42.5" r="42.5"></circle>
            </g>
            <g id="Group-61" transform="translate(0.000000, 76.000000)">
                <path d="M82.5,82 C107.430974,81.40365 128.302107,71.8667018 145.113397,53.3891555 C155.744039,41.7048544 160.453367,30.3498579 162.94055,19.210327 C163.90458,14.8926496 164.591064,8.48920726 165,0 C143.57326,2.75321607 125.983692,10.9644202 112.231294,24.6336123 C98.4788968,38.3028044 88.5684654,57.4249337 82.5,82 Z" id="Path" fill="#F27268"></path>
                <path d="M0,82 C24.9309743,81.40365 45.8021065,71.8667018 62.6133967,53.3891555 C73.2440386,41.7048544 77.9533673,30.3498579 80.4405495,19.210327 C81.4045803,14.8926496 82.0910638,8.48920726 82.5,0 C61.0732603,2.75321607 43.4836917,10.9644202 29.7312942,24.6336123 C15.9788968,38.3028044 6.06846537,57.4249337 0,82 Z" id="Path-Copy" fill="#7864CC" transform="translate(41.250000, 41.000000) scale(-1, 1) translate(-41.250000, -41.000000) "></path>
            </g>
        </g>
    </g>
</svg>