<?xml version="1.0" encoding="UTF-8"?>
<svg width="51px" height="50px" viewBox="0 0 51 50" version="1.1" xmlns="http://www.w3.org/2000/svg" xmlns:xlink="http://www.w3.org/1999/xlink">
    <!-- Generator: Sketch 59.1 (86144) - https://sketch.com -->
    <title>noun_Profit_2512854</title>
    <desc>Created with Sketch.</desc>
    <g id="Page-1" stroke="none" stroke-width="1" fill="none" fill-rule="evenodd">
        <g id="noun_Profit_2512854" fill="#483493" fill-rule="nonzero">
            <g id="Group">
                <path d="M23.428125,0.208149425 C14.5209733,0.208149425 7.278125,7.55342529 7.278125,16.5874598 C7.278125,25.6214885 14.5209733,32.9667701 23.428125,32.9667701 C32.3352767,32.9667701 39.578125,25.6214885 39.578125,16.5874598 C39.578125,7.55342529 32.3352767,0.208149425 23.428125,0.208149425 Z M23.428125,2.507 C31.1103054,2.507 37.3114583,8.79584483 37.3114583,16.5874598 C37.3114583,24.3790747 31.1103054,30.6858793 23.428125,30.6858793 C15.7459446,30.6858793 9.52708333,24.3790747 9.52708333,16.5874598 C9.52708333,8.79584483 15.7459446,2.507 23.428125,2.507 Z M23.2864583,6.38631034 C22.7164412,6.45917943 22.2903388,6.95306807 22.2947917,7.53573563 L22.2947917,8.59536207 C21.101926,8.7318092 20.0189025,9.07701724 19.125,9.61906897 C17.9558766,10.3280115 17.0354167,11.4701379 17.0354167,12.8697874 C17.0354167,14.2472356 17.9122965,15.3681092 19.0364583,16.1384655 C20.1606202,16.9088218 21.6095857,17.4317356 23.2333333,17.7189253 C24.6131644,17.9629713 25.7917058,18.4241207 26.5447917,18.9401897 C27.2978775,19.4562586 27.5541667,19.9222701 27.5541667,20.3051322 C27.5541667,20.6658736 27.2957706,21.1176609 26.5625,21.5623161 C25.8292294,22.0069713 24.6964984,22.3345862 23.428125,22.3345862 C21.4943574,22.3345862 19.9168186,21.5067874 19.4791667,20.8439253 C19.2713466,20.4653881 18.871325,20.2375114 18.4444583,20.2544921 C18.0175916,20.2714727 17.6363976,20.5304261 17.4584499,20.9243091 C17.2805023,21.318192 17.3360314,21.78009 17.6020833,22.119069 C18.5424055,23.5432592 20.2765109,24.3619557 22.2947917,24.5795575 L22.2947917,25.6212241 C22.2890128,26.0357472 22.5037521,26.4213152 22.8567821,26.6302871 C23.209812,26.839259 23.646438,26.839259 23.9994679,26.6302871 C24.3524979,26.4213152 24.5672372,26.0357472 24.5614583,25.6212241 L24.5614583,24.5615977 C25.7543234,24.4251489 26.8373469,24.0799385 27.73125,23.5378908 C28.900374,22.8289368 29.8208333,21.7047931 29.8208333,20.3051322 C29.8208333,18.9277126 28.9439439,17.8068046 27.8197917,17.036454 C26.6956395,16.2661034 25.2466711,15.7431839 23.6229167,15.4559943 C22.2430788,15.2119483 21.0645408,14.7507931 20.3114583,14.2347299 C19.5583759,13.7186667 19.3020833,13.2527414 19.3020833,12.8697874 C19.3020833,12.5090977 19.5604743,12.0392931 20.29375,11.5946437 C21.0270257,11.1499943 22.1597476,10.8223736 23.428125,10.8223736 C25.3618875,10.8223736 26.9217225,11.6501667 27.359375,12.3130345 C27.5839565,12.6563414 27.9720723,12.8520486 28.3775121,12.8264298 C28.7829519,12.8008109 29.1441143,12.5577584 29.3249428,12.1888345 C29.5057712,11.8199106 29.4787913,11.3811687 29.2541667,11.0378908 C28.3138451,9.61368621 26.5797369,8.81296034 24.5614583,8.59536207 L24.5614583,7.53573563 C24.5639855,7.20429299 24.425329,6.88787438 24.1810666,6.66766929 C23.9368041,6.4474642 23.6107107,6.34490613 23.2864583,6.38631034 Z M39.5958333,27.4890402 C39.1908745,27.5082099 38.8267708,27.7450622 38.6407084,28.1103563 C38.454646,28.4756505 38.4749002,28.9138742 38.6938395,29.2599144 C38.9127789,29.6059545 39.2971321,29.8072247 39.7020833,29.7878908 L45.8114583,29.7878908 L21.14375,46.9394713 L12.4135417,36.5587241 C12.040709,36.1057257 11.390245,36.0125916 10.9083333,36.3432069 L1.0625,43.2217989 C0.681549425,43.4311574 0.451614105,43.8424618 0.470085918,44.2814992 C0.48855773,44.7205365 0.752204321,45.1104804 1.149355,45.2861653 C1.54650568,45.4618502 2.00766369,45.3925333 2.3375,45.1075747 L11.3333333,38.8396149 L20.08125,49.2203621 C20.4590453,49.6674781 21.1088843,49.7527689 21.5864583,49.4179195 L47.1395833,31.6557069 L45.0677083,38.1751034 C44.8769975,38.7801568 45.2060216,39.4274463 45.8026042,39.6208649 C46.3991868,39.8142836 47.0374142,39.4805878 47.228125,38.8755345 L50.3802083,28.9976609 C50.4939565,28.6468299 50.4345803,28.2619359 50.2206113,27.9631065 C50.0066424,27.6642771 49.6641395,27.4877769 49.3,27.4890402 L39.7020833,27.4890402 C39.6666861,27.4873557 39.6312305,27.4873557 39.5958333,27.4890402 Z" id="Shape"></path>
            </g>
        </g>
    </g>
</svg>