<?xml version="1.0" encoding="UTF-8"?>
<svg width="54px" height="64px" viewBox="0 0 54 64" version="1.1" xmlns="http://www.w3.org/2000/svg" xmlns:xlink="http://www.w3.org/1999/xlink">
    <!-- Generator: Sketch 59.1 (86144) - https://sketch.com -->
    <title>noun_bulb_2214704</title>
    <desc>Created with Sketch.</desc>
    <g id="Page-1" stroke="none" stroke-width="1" fill="none" fill-rule="evenodd">
        <g id="noun_bulb_2214704" fill="#000000" fill-rule="nonzero">
            <g id="Group">
                <rect id="Rectangle" x="25" y="0" width="4" height="5"></rect>
                <rect id="Rectangle" transform="translate(9.354275, 9.701435) rotate(-135.000000) translate(-9.354275, -9.701435) " x="6.60430137" y="7.5014561" width="5.49994725" height="4.3999578"></rect>
                <rect id="Rectangle" x="0" y="25" width="5" height="4"></rect>
                <rect id="Rectangle" x="49" y="25" width="5" height="4"></rect>
                <rect id="Rectangle" transform="translate(44.622665, 9.695615) rotate(-135.000000) translate(-44.622665, -9.695615) " x="42.4226861" y="6.94564137" width="4.3999578" height="5.49994725"></rect>
                <path d="M27,64 L27,64 C30.9,64 34,60.9 34,57 L34,56 L20,56 L20,57 C20,60.9 23.2,64 27,64 Z" id="Path"></path>
                <path d="M9.1,25.5 C8.6,31.3 10.9,36.5 14.7,40.1 C16.8,42 18,44.7 18,47.5 L18,50 L14,50 L14,54 L40,54 L40,50 L36,50 L36,47.5 C36,44.7 37.3,42.1 39.3,40.2 C42.8,36.9 45,32.2 45,27.1 C45,16.5 35.8,8 25,9.2 C16.5,10 9.7,17 9.1,25.5 Z M27,32 L34,25 L37,28 L29,36 L29,50 L25,50 L25,36 L17,28 L20,25 L27,32 L27,32 Z" id="Shape"></path>
            </g>
        </g>
    </g>
</svg>