<?xml version="1.0" encoding="UTF-8"?>
<svg width="41px" height="58px" viewBox="0 0 41 58" version="1.1" xmlns="http://www.w3.org/2000/svg" xmlns:xlink="http://www.w3.org/1999/xlink">
    <!-- Generator: Sketch 59.1 (86144) - https://sketch.com -->
    <title>Group 49</title>
    <desc>Created with Sketch.</desc>
    <g id="Page-1" stroke="none" stroke-width="1" fill="none" fill-rule="evenodd">
        <g id="Group-49" fill="#483493">
            <g id="Group-48">
                <g id="noun_contract_1317813">
                    <g id="Group">
                        <path d="M6.80472966,28.1607513 C6.53146552,28.1531903 6.27648181,28.3420766 6.13817627,28.6545192 C5.99987073,28.9669619 5.99987073,29.3541031 6.13817627,29.6665457 C6.27648181,29.9789884 6.53146552,30.1678747 6.80472966,30.1603137 L34.2055799,30.1603137 C34.478844,30.1678747 34.7338277,29.9789884 34.8721332,29.6665457 C35.0104388,29.3541031 35.0104388,28.9669619 34.8721332,28.6545192 C34.7338277,28.3420766 34.478844,28.1531903 34.2055799,28.1607513 L6.80472966,28.1607513 L6.80472966,28.1607513 Z" id="Path"></path>
                        <path d="M6.80472966,49.0017265 C6.53146552,48.9941656 6.27648181,49.1830518 6.13817627,49.4954945 C5.99987073,49.8079372 5.99987073,50.1950783 6.13817627,50.507521 C6.27648181,50.8199637 6.53146552,51.0088499 6.80472966,51.001289 L34.2055799,51.001289 C34.478844,51.0088499 34.7338277,50.8199637 34.8721332,50.507521 C35.0104388,50.1950783 35.0104388,49.8079372 34.8721332,49.4954945 C34.7338277,49.1830518 34.478844,48.9941656 34.2055799,49.0017265 L6.80472966,49.0017265 Z" id="Path"></path>
                        <path d="M6.80472966,41.633967 C6.53146552,41.626406 6.27648181,41.8152923 6.13817627,42.1277349 C5.99987073,42.4401776 5.99987073,42.8273188 6.13817627,43.1397615 C6.27648181,43.4522041 6.53146552,43.6410904 6.80472966,43.6335294 L34.2055799,43.6335294 C34.478844,43.6410904 34.7338277,43.4522041 34.8721332,43.1397615 C35.0104388,42.8273188 35.0104388,42.4401776 34.8721332,42.1277349 C34.7338277,41.8152923 34.478844,41.626406 34.2055799,41.633967 L6.80472966,41.633967 Z" id="Path"></path>
                        <path d="M6.80472966,35.1876257 C6.53111527,35.1793249 6.27556167,35.3680374 6.13691444,35.680771 C5.99826722,35.9935047 5.99826722,36.3812207 6.13691444,36.6939543 C6.27556167,37.006688 6.53111527,37.1954005 6.80472966,37.1870997 L34.2055799,37.1870997 C34.4791942,37.1954005 34.7347478,37.006688 34.8733951,36.6939543 C35.0120423,36.3812207 35.0120423,35.9935047 34.8733951,35.680771 C34.7347478,35.3680374 34.4791942,35.1793249 34.2055799,35.1876257 L6.80472966,35.1876257 L6.80472966,35.1876257 Z" id="Path"></path>
                        <path d="M13.9574442,0.559771685 L0.400653984,13.7868867 C0.146421581,14.0305128 0.0086443871,14.2271784 -2.51290323e-05,14.4574906 L-2.51290323e-05,56.8443663 C-2.51290323e-05,57.2317933 0.359179839,57.5843551 0.754236,57.5843551 L40.2455292,57.5843551 C40.6405861,57.5843551 41.0000258,57.2317933 41.0000258,56.8443663 L41.0000258,0.976009663 C41.0000258,0.588569663 40.6405861,0.236033933 40.2455292,0.236033933 L14.6643735,0.236033933 C14.3447672,0.242550787 14.1741854,0.356100449 13.9574435,0.559771685 L13.9574442,0.559771685 Z M15.3720063,1.71599191 L39.4910347,1.71599191 L39.4910347,56.1043775 L1.50896598,56.1043775 L1.50896598,15.1974663 L14.6175105,15.1974663 C15.0123325,15.1974207 15.3720063,14.8449306 15.3720063,14.4574906 L15.3720063,1.71599191 Z M13.8630146,2.7565836 L13.8630146,13.7175148 L2.59314419,13.7175148 L13.8630146,2.7565836 Z" id="Shape"></path>
                    </g>
                </g>
                <path d="M26.5,9.41244188 C27.7121212,9.41244188 28.6818182,10.3660843 28.6818182,11.5581372 C28.6818182,12.0349584 29.1060606,12.452177 29.5909091,12.452177 C30.0757576,12.452177 30.5,12.0349584 30.5,11.5581372 C30.5,9.71045512 29.1666667,8.16078625 27.4090909,7.7435677 L27.4090909,6.49191208 C27.4090909,6.01509088 26.9848485,5.59787234 26.5,5.59787234 C26.0151515,5.59787234 25.5909091,6.01509088 25.5909091,6.49191208 L25.5909091,7.7435677 C23.8333333,8.16078625 22.5,9.71045512 22.5,11.5581372 C22.5,13.7038326 24.3181818,15.4919121 26.5,15.4919121 C27.7121212,15.4919121 28.6818182,16.4455545 28.6818182,17.6376074 C28.6818182,18.8296604 27.7121212,19.7833028 26.5,19.7833028 C25.2878788,19.7833028 24.3181818,18.8296604 24.3181818,17.6376074 C24.3181818,17.1607862 23.8939394,16.7435677 23.4090909,16.7435677 C22.9242424,16.7435677 22.5,17.1011836 22.5,17.6376074 C22.5,19.4852896 23.8333333,21.0349584 25.5909091,21.452177 L25.5909091,22.7038326 C25.5909091,23.1806538 26.0151515,23.5978723 26.5,23.5978723 C26.9848485,23.5978723 27.4090909,23.1806538 27.4090909,22.7038326 L27.4090909,21.452177 C29.1666667,21.0349584 30.5,19.4852896 30.5,17.6376074 C30.5,15.4919121 28.6818182,13.7038326 26.5,13.7038326 C25.2878788,13.7038326 24.3181818,12.7501902 24.3181818,11.5581372 C24.3181818,10.3660843 25.2878788,9.41244188 26.5,9.41244188 Z" id="Path" fill-rule="nonzero"></path>
            </g>
        </g>
    </g>
</svg>