<?xml version="1.0" encoding="UTF-8"?>
<svg width="52px" height="54px" viewBox="0 0 52 54" version="1.1" xmlns="http://www.w3.org/2000/svg" xmlns:xlink="http://www.w3.org/1999/xlink">
    <!-- Generator: Sketch 59.1 (86144) - https://sketch.com -->
    <title>noun_Piggy Bank_1077609</title>
    <desc>Created with Sketch.</desc>
    <g id="Page-1" stroke="none" stroke-width="1" fill="none" fill-rule="evenodd">
        <g id="noun_Piggy-Bank_1077609" fill="#483493" fill-rule="nonzero">
            <path d="M23.0721421,13.3572 C22.7143645,12.4224 22.5319216,11.4348 22.5319216,10.4208 C22.5319216,5.9538 26.1197674,2.3196 30.5297908,2.3196 C34.9398142,2.3196 38.5276599,5.9538 38.5276599,10.4208 C38.5276599,11.685 38.2492568,12.894 37.7013359,14.0142 L39.7520412,15.045 C40.4587111,13.6008 40.8176734,12.0456 40.8176734,10.4208 C40.8170811,4.6752 36.2015133,0 30.5297908,0 C24.8580683,0 20.2425005,4.6752 20.2425005,10.4208 C20.2425005,11.7234 20.4764776,12.9936 20.9391006,14.1972 L23.0721421,13.3572 Z M13.4512422,26.3412 C12.271287,26.3412 11.3146466,27.2418 11.3146466,28.3542 C11.3146466,29.4654 12.271287,30.3666 13.4512422,30.3666 C14.6311974,30.3666 15.5884302,29.4654 15.5884302,28.3542 C15.5878378,27.2418 14.6311974,26.3412 13.4512422,26.3412 Z M28.4524299,14.7036 C24.3912989,14.7036 20.2010362,15.7206 16.6511007,17.568 L16.2619287,17.7708 C14.034704,16.0362 11.074746,15.1014 9.34213109,15.1014 C8.44591008,15.1014 7.79492073,15.3498 7.4063411,15.8406 C6.55217673,16.9182 7.22567527,18.6636 9.24439383,22.248 C7.82513043,23.409 6.66057623,24.888 5.83129044,26.589 C4.93803117,26.928 3.8380428,27.087 2.41285593,27.087 L2.26654622,27.0864 C1.54269819,27.0864 0.924287926,27.4566 0.524453703,28.1286 C-0.553617829,29.943 0.161937342,34.0116 1.47931706,36.528 C2.42174113,38.3292 6.01669505,41.0814 12.7913676,45.1872 C12.8162462,45.2028 12.8411248,45.2178 12.8648187,45.2322 L12.8648187,54 L19.9255949,54 L21.7624629,49.6512 C23.9239371,50.223 26.1701169,50.5128 28.4518375,50.5128 C31.289772,50.5128 34.8284529,50.0694 37.4703205,49.4046 L39.1958273,54 L45.7922035,54 L47.0544949,43.9536 C50.2466529,40.7592 52,36.7464 52,32.6082 C52,23.07 40.9959699,14.7036 28.4524299,14.7036 Z M45.1832708,42.5604 L44.8859126,42.8454 L43.7758543,51.681 L40.7750244,51.681 L38.8629283,46.587 L37.8423144,46.8984 C35.3414254,47.661 31.4805077,48.1932 28.4530222,48.1932 C26.045724,48.1932 23.6864059,47.8422 21.4402261,47.1492 L20.4587072,46.8462 L18.41511,51.681 L15.1560169,51.681 L15.1560169,44.0148 L14.714126,43.6674 C14.6679229,43.6314 14.4019591,43.461 13.9677688,43.1976 C5.80404248,38.2494 3.90675505,36.2142 3.50218205,35.442 C2.30860286,33.1608 2.07995691,30.1662 2.4377345,29.406 C4.39603367,29.4036 5.89585626,29.1282 7.15755536,28.5396 L7.54613499,28.3584 L7.72206205,27.963 C8.53476213,26.1384 9.80120001,24.6042 11.3851359,23.5266 L12.2760258,22.92 L11.7358053,21.9804 C11.1647828,20.9874 9.78106021,18.579 9.42032089,17.421 C11.2098012,17.463 14.7810612,18.8952 16.2554129,21.039 L18.384308,24.1332 L18.3274427,19.3158 C21.4189016,17.8332 24.9866076,17.0226 28.4518375,17.0226 C39.775735,17.0226 49.7099867,24.3054 49.7099867,32.6076 C49.7105789,36.2292 48.1029491,39.7638 45.1832708,42.5604 Z" id="Shape"></path>
        </g>
    </g>
</svg>